<?xml version="1.0" encoding="UTF-8"?><svg xmlns="http://www.w3.org/2000/svg" viewBox="0 0 290.72 290.72"><defs><style>.cls-1{fill:#eefcfd;}.cls-2{fill:#7df4eb;}.cls-3{fill:#ec41ab;}.cls-4{fill:#a82a7c;}.cls-5{fill:#150d26;}.cls-6{fill:#83f9ea;}.cls-7{fill:#fefefe;}</style></defs><g id="Layer_1"><g><path class="cls-2" d="M71.11,203.23c-2.82,1.99-5.63,3.97-8.45,5.96l-1.33,.94c1.18,1.68,2.21,3.25,3.36,4.72,.66,.85,.48,1.26-.35,1.82-2.84,1.93-5.63,3.94-8.44,5.92-.34,.24-.65,.51-.97,.76l4.96,7.04c3.32-2.34,6.56-4.62,9.89-6.96,.8,1.14,1.52,2.18,2.26,3.21,3.79,5.25,7.58,10.5,11.38,15.74,1.09,1.5,1.99,3.17,3.71,4.14,.51,.29,.9,.85,1.27,1.35,.84,1.12,1.61,2.3,2.47,3.42,1.14,1.48,2.63,2.21,4.53,2.23,1.74,.02,3.03-.95,4.35-1.81,1.81-1.18,3.55-2.47,5.38-3.76l-1.7-2.41c-.26-.47-.52-.94-.78-1.41,6.03-4.25,12.03-8.47,18.1-12.75,.51,.72,.98,1.39,1.45,2.05,.48,.68,.96,1.35,1.44,2.03l2.76,3.92c15.79-11.13,31.51-22.2,47.25-33.28-.95-1.35-1.87-2.65-2.78-3.95,1.29-.92,2.58-1.85,3.87-2.78,5.22-3.77,10.43-7.54,15.66-11.3,6.68-4.81,13.37-9.61,20.06-14.41,8.14-5.85,16.29-11.7,24.43-17.56,5.04-3.62,10.07-7.24,15.1-10.87,2.04-1.47,2.69-3.98,1.71-6.35-.06-1.03-.13-2.05-.19-3.08-.15-1.03-.3-2.07-.45-3.1,4.07-2.87,8.14-5.73,12.21-8.6l-5-7.1-10.65,7.51c-.19-.34-.35-.7-.58-1.01-2.3-3.1-4.63-6.17-6.92-9.27-3.05-4.14-6.05-8.33-9.14-12.45-.48-.64-1.3-1.04-1.97-1.54-.7-.52-1.6-.89-2.09-1.56-3.81-5.28-7.53-10.63-11.29-15.95-.73-1.04-1.46-2.08-2.21-3.13l-1.27,.9-2.72,1.92c-1.58-2.24-3.04-4.32-4.56-6.47l2.64-1.86,1.19-.84c-1.74-2.47-3.39-4.82-5.12-7.27,5.51-3.88,10.92-7.69,16.36-11.52l-4.28-6.08-16.39,11.55c-2.46-3.5-4.85-6.89-7.28-10.34l-1.15,.81-6.55,4.61-1.49-2.12,6.52-4.6,1.12-.79c-2.02-2.86-3.88-5.66-5.9-8.33-1.49-1.97-4.04-2.62-6.21-1.61-1.44,.67-2.77,1.6-4.08,2.51-2.24,1.54-4.43,3.16-6.65,4.73-.15,.11-.33,.17-.63,.32l-1.58-2.24c-1.46,1.03-2.82,1.94-4.11,2.94-.2,.15-.24,.76-.1,1.03,.3,.61,.76,1.14,1.24,1.82-3.69,2.6-7.23,5.08-10.76,7.58-17.31,12.25-34.62,24.51-51.93,36.77-4.02,2.84-8.05,5.66-12.07,8.5-10.04,7.11-20.07,14.23-30.1,21.35-4.68,3.33-9.33,6.69-14.01,10.01-.43,.3-.97,.44-1.48,.63-.58,.21-1.24,.29-1.73,.61-2.5,1.66-4.97,3.37-7.43,5.1-.28,.2-.45,.58-.65,.89-.27,.43-.43,.99-.8,1.28-1.93,1.52-3.92,2.96-5.87,4.47-1.7,1.31-2.56,4.11-1.83,5.84-.43,1.21-.03,2.31,.49,3.39-.55,.96-.3,1.88,.2,2.74,.63,1.1,1.33,2.17,1.99,3.25-.01,.24-.13,.55-.03,.71,.82,1.23,1.68,2.45,2.56,3.64,.11,.14,.45,.11,.68,.16,3.49,4.96,6.98,9.91,10.53,14.96l1.39-.98c3.04-2.13,6.08-4.27,9.11-6.4,.51-.36,1.02-.73,1.53-1.09,3.32-2.33,6.63-4.66,9.95-6.99,4.68-3.3,9.37-6.59,14.04-9.9,.53-.38,1.03-.82,1.48,.08-3.88,2.73-7.75,5.46-11.78,8.3,.98,1.38,1.84,2.62,2.71,3.85-3.86,2.72-7.7,5.47-11.6,8.14-.91,.62-1.05,1.04-.38,1.98,3.89,5.43,7.71,10.9,11.55,16.36,.26,.36,.39,.81,.58,1.22-4.35-6.18-8.7-12.36-13.05-18.52l-1.71,1.21c-3.02,2.12-6.04,4.23-9.05,6.35l-1.39,.98c3.01,4.27,5.91,8.4,8.89,12.63l-8.31,5.86,5.36,7.61c3.59-2.53,7.12-5.01,10.65-7.5,2.74-1.94,5.48-3.88,8.22-5.82,.51-.35,1.02-.7,1.53-1.05,.42-.28,.85-.56,1.26-.85,4.63-3.26,9.27-6.49,13.86-9.79,.86-.62,1.29-.54,1.82,.34,.58,.97,1.24,1.9,1.95,2.77,.58,.72,.48,1.12-.28,1.65-4.81,3.34-9.58,6.72-14.37,10.09l-1.04,.73c.31,.72,.54,1.24,.76,1.76-.38-.47-.77-.94-1.18-1.45-.59,.41-1.09,.77-1.59,1.12ZM252.92,65.28c-10.16,7.16-20.19,14.22-30.19,21.27,1.99,2.82,3.91,5.55,5.88,8.34,.37-.26,.65-.46,.94-.66,9.42-6.63,18.84-13.27,28.25-19.9,.13-.09,.33-.16,.37-.28,.1-.34,.32-.82,.18-1.03-1.76-2.58-3.57-5.12-5.42-7.75Zm-47.36,.27c2.65,3.77,5.25,7.45,7.85,11.14l12.88-9.07c-2.65-3.76-5.24-7.45-7.85-11.14-4.31,3.04-8.56,6.03-12.88,9.07Zm24.65,104.76c-1.24-1.76-2.36-3.4-3.56-4.98-.14-.18-.88-.15-1.16,.05-7.18,5.01-14.32,10.06-21.49,15.09-.62,.44-.71,.82-.25,1.43,.86,1.16,1.73,2.32,2.49,3.55,.58,.95,1.04,1.05,1.98,.38,6.93-4.95,13.91-9.83,20.88-14.74,.32-.22,.63-.45,1.11-.78ZM192.04,22.29c-4.02,2.83-7.99,5.63-12.03,8.47,2.42,3.44,4.82,6.84,7.25,10.29l12.03-8.47c-2.42-3.43-4.81-6.83-7.25-10.29ZM32.95,179.28c-1.07-1.51-2.11-2.88-3.02-4.33-.6-.95-1.1-1.03-2.02-.37-5.75,4.11-11.54,8.16-17.32,12.23-.31,.22-.6,.47-.94,.73l3.84,5.45c6.5-4.58,12.9-9.09,19.46-13.71Zm237.93-46.43c-12.08,8.51-24.09,16.97-36.12,25.44l1.93,2.74c12.07-8.5,24.07-16.96,36.12-25.44l-1.93-2.74ZM81.37,245.17l-9.51,6.7c1.94,2.75,3.82,5.42,5.73,8.13,3.19-2.25,6.32-4.45,9.51-6.7l-5.73-8.13ZM246.39,119.27c3.01-2.12,5.92-4.17,8.84-6.22-1.81-2.57-3.59-5.1-5.35-7.59l-8.84,6.22,5.35,7.59ZM93.78,262.32c4.87-3.43,9.63-6.78,14.49-10.2-.72-1.02-1.44-1.94-2.04-2.93-.51-.83-.95-.88-1.74-.31-4.18,3-8.41,5.95-12.62,8.92-.27,.19-.52,.43-.81,.66l2.72,3.87Zm-33.14-29.01l-6.17,4.35,3.72,5.28c2.09-1.47,4.11-2.89,6.17-4.35l-3.72-5.28Zm5.59-121.08l-2.47-3.5-9.07,6.39,2.47,3.5,9.07-6.39Zm189.27-16.82c1.05,1.5,2.03,2.88,3.05,4.33l5.01-3.53-3.05-4.33c-1.68,1.19-3.3,2.32-5.01,3.53Zm-23.47-54.49c.86,1.23,1.65,2.38,2.49,3.49,.12,.16,.59,.24,.75,.13,1.38-.92,2.72-1.89,4.1-2.86l-2.79-3.97-4.55,3.2ZM37.68,208.5l-3.4,2.4,3.03,4.3,3.4-2.4-3.03-4.3ZM251.79,85.39c-2.99,1.73-3.06,1.48-.99,3.76l2.43-1.71-1.44-2.05ZM34.23,196.77l1.45,2.06,2.39-1.68-1.45-2.06-2.39,1.68Z"/><path class="cls-5" d="M24.25,155.06c-.52-1.08-.92-2.17-.49-3.39,.63-1.38,1.24-2.74,2.58-3.67,1.86-1.29,3.65-2.68,5.45-4.05,.27-.2,.67-.53,.65-.76-.11-1.1,.71-1.49,1.39-1.95,1.06-.73,2.15-1.4,3.24-2.09,1.91-1.22,3.5-3.05,5.99-3.21,.24-.02,.47-.26,.69-.42,2.46-1.79,4.91-3.6,7.39-5.36,4.23-3.01,8.49-5.98,12.73-8.97,9.28-6.56,18.56-13.11,27.82-19.69,7.32-5.2,14.6-10.46,21.93-15.66,17.55-12.46,35.11-24.9,52.66-37.34,1.83-1.3,3.67-2.6,5.5-3.9,1.72-1.21,3.41-2.46,5.17-3.61,3.29-2.14,6.12-1.57,8.38,1.63,1.33,1.88,2.66,3.76,3.99,5.65l-6.52,4.6,1.49,2.12c2.18-1.53,4.36-3.07,6.55-4.61,2.42,3.43,4.84,6.87,7.31,10.37-2.81,1.98-5.55,3.91-8.29,5.84-.12,.09-.29,.15-.43,.15-1.73,.07-3.12,.92-4.47,1.87-4.85,3.42-9.69,6.85-14.53,10.28-.34,.24-.69,.48-1.12,.79l-1.82-2.59-9.54,6.72,1.79,2.54c-.34,.27-.57,.47-.82,.64-15.42,10.93-30.84,21.87-46.26,32.79-10.23,7.25-20.38,14.61-30.73,21.67-6.09,4.15-11.77,8.89-18.23,12.54-2.89,1.64-5.75,3.44-8.09,5.99-1.37,1.5-3.34,2.43-4.93,3.75-1.04,.85-1.93,1.9-2.81,2.92-.64,.73-.61,1.57-.05,2.37,.96,1.37,1.92,2.75,2.88,4.12-3.04,2.13-6.08,4.27-9.11,6.4-3.51-4.98-7.02-9.97-10.58-15.02-.55,.43-.95,.74-1.34,1.04-.23-.05-.58-.02-.68-.16-.88-1.19-1.74-2.41-2.56-3.64-.11-.16,.01-.47,.03-.71,.42-.3,.84-.59,1.36-.96l-3.55-5.04Zm68.63-48.44l-1.64-2.33-3.93,2.77,1.66,2.36c-18.5,13.03-37.01,26.07-55.51,39.1l2.29,3.24c29-20.43,57.95-40.82,86.9-61.21l-2.3-3.27c-9.2,6.48-18.34,12.92-27.47,19.35Zm-42.82,40.08c-3.55,2.5-7.03,4.95-10.47,7.37l5.34,7.57c3.52-2.48,6.98-4.92,10.47-7.37l-5.34-7.57Zm9.33,5.26c2.74-1.93,5.39-3.8,8.06-5.67l-4.84-6.86-8.06,5.67,4.84,6.86Zm74.62-74.48l1.72,2.44,2.9-2.04-1.72-2.44-2.9,2.04Z"/><path class="cls-1" d="M73.88,203.56c-.23-.52-.45-1.04-.76-1.76l1.04-.73c4.78-3.37,9.56-6.76,14.37-10.09,.76-.53,.87-.93,.28-1.65-.71-.88-1.37-1.81-1.95-2.77-.52-.88-.96-.96-1.82-.34-4.59,3.3-9.24,6.54-13.86,9.79-.41,.29-.84,.57-1.26,.85-.38-.58-.76-1.16-1.14-1.74-.19-.41-.33-.85-.58-1.22-3.83-5.47-7.66-10.94-11.55-16.36-.67-.94-.53-1.36,.38-1.98,3.9-2.67,7.74-5.42,11.6-8.14,.64,.91,1.28,1.82,2.03,2.88l8.73-6.15c.1,.49,.16,1,.31,1.48,.37,1.15-.06,1.85-1.05,2.51-2.54,1.68-5,3.48-7.48,5.24-.34,.24-.64,.51-.96,.77l7.93,11.26c.42-.29,.76-.53,1.1-.78,2.04-1.44,4.09-2.87,6.12-4.32,.55-.39,.94-.5,1.48,.09,2.65,2.87,5.79,5.07,9.33,6.7,.6,.28,1.3,.34,1.95,.5q1.36,1.97,2.75,1c.35,.14,.69,.36,1.06,.42,1.65,.26,3.31,.6,4.98,.68,8.51,.41,16.11-2.18,22.6-7.61,4.69-3.93,8.11-8.9,9.92-14.84,.41-.3,.8-.62,1.22-.91,10.76-7.58,21.51-15.15,32.27-22.73l1.11-.78-2.71-3.85c-.43,.3-.81,.57-1.18,.83-7.02,4.95-14.04,9.9-21.07,14.84-2.71,1.91-5.44,3.8-8.16,5.7-.07-2.15-.14-4.31-.21-6.46,9.26-6.58,18.52-13.16,27.77-19.74,.29-.2,.56-.43,.84-.64,.74-.6,1.48-1.19,2.22-1.79,.4-.2,.84-.35,1.21-.6,4.18-2.94,8.27-6.03,12.56-8.8,2.41-1.56,3.73-3.67,4.59-6.23,.31-.92,.59-1.87,.77-2.82,1.25-6.9-1.06-12.27-8.25-14.5-3.36-1.04-6.81-1.32-10.3-1.21-.61,.02-1.31,.25-1.81,.6-4.96,3.46-9.89,6.97-14.83,10.46-.82,.58-1.64,1.16-2.47,1.74-9.95,7.02-19.91,14.05-29.86,21.07-3.05-1.11-6.18-1.86-9.43-2.1-7.27-.53-13.89,1.35-19.94,5.28-3.9,2.53-7.14,5.78-9.6,9.73-1.75,2.82-3.21,5.8-3.82,9.11-.88,.62-1.76,1.24-2.64,1.85-.45-.89-.95-.45-1.48-.08-4.68,3.3-9.36,6.6-14.04,9.9-3.31,2.33-6.63,4.66-9.95,6.99-.85-1.22-1.79-2.38-2.5-3.68-.3-.54-.36-1.54-.05-2.02,.67-1.06,1.56-2.05,2.53-2.86,1.5-1.25,3.15-2.31,4.72-3.46,.28-.21,.52-.47,.77-.71,.63-.6,1.18-1.33,1.9-1.8,2.74-1.78,5.6-3.37,8.28-5.23,5.84-4.05,11.58-8.23,17.38-12.34,8.16-5.78,16.34-11.53,24.5-17.31,15.84-11.22,31.67-22.45,47.51-33.68,.94-.67,1.88-1.33,2.92-2.06l3.45,4.89,9.53-6.72-3.38-4.8c2.5-2.29,15.45-11.14,16.98-11.52-3.61,2.54-7.01,4.94-10.46,7.37l4.27,6.07c4.23-2.98,8.39-5.91,12.62-8.89,.29,.41,.48,.69,.68,.97,5.76,8.03,11.51,16.06,17.28,24.07,.28,.39,.74,.95,1.09,.93,1.31-.06,1.85,.81,2.47,1.66,.39,.53,.82,1.04,1.23,1.56-.4,.31-.78,.64-1.2,.93-7.08,4.99-14.16,9.98-21.24,14.96q-2.58,1.82-.76,4.4c.91,1.29,1.82,2.59,2.79,3.96,.54-.38,.92-.65,1.3-.91,8.01-5.63,16.02-11.26,24.03-16.89,.58,.83,1.23,1.63,1.7,2.52,.23,.43,.09,1.05,.14,1.58,.04,.48-.07,1.07,.17,1.43,1.02,1.53,1.21,2.7-.05,4.03-1.45,1.53-3.2,2.77-4.95,4.26l-2.37-3.37c-2.61,1.84-5.09,3.58-7.71,5.43,.59,.83,1.1,1.65,1.71,2.4,.57,.7,.53,1.12-.26,1.65-2.93,1.99-5.82,4.03-8.71,6.09-8.21,5.85-16.39,11.73-24.6,17.57-12.6,8.96-25.23,17.9-37.84,26.85-.33-.13-.8-.46-.96-.35-3.11,2.13-6.19,4.31-9.3,6.51,.18,.33,.32,.6,.46,.86-7.68,5.14-14.93,10.88-22.83,15.74-5.84,3.6-11.28,7.85-16.94,11.75-.91,.63-2.01,1.03-3.07,1.35-1.07,.32-2.1,.07-2.81-.92,3.43-2.41,6.85-4.83,10.27-7.24-1.73-2.45-3.33-4.73-5-7.09-3.71,2.61-7.33,5.17-10.96,7.72-1.02-1.39-2.04-2.79-3.06-4.18Zm46.19-83.84l5.39,7.65c8.24-5.8,16.43-11.57,24.64-17.35-1.81-2.57-3.6-5.1-5.39-7.65-8.23,5.8-16.4,11.55-24.64,17.35Zm64.83-25.65c3.81,5.41,7.59,10.78,11.37,16.15l4.69-3.3c-3.81-5.42-7.58-10.76-11.37-16.15-1.58,1.12-3.13,2.21-4.69,3.3Z"/><path class="cls-5" d="M128.27,186.43c-.14-.27-.28-.53-.46-.86,3.12-2.19,6.19-4.38,9.3-6.51,.16-.11,.63,.22,.96,.35,.4,.93,.86,.31,1.25,.03,5.32-3.77,10.63-7.55,15.94-11.34,18.05-12.89,36.1-25.78,54.16-38.66,.33-.24,.69-.44,1.14-.72l1.86,2.63,7.6-5.36-1.93-2.74c1.57-1.1,3.13-2.12,4.6-3.27,.85-.66,1.65-1.44,2.27-2.32,.93-1.32,.82-2.53-.25-3.74-.48-.55-.44-.93-.16-1.55,.18-.4,.14-1.08-.09-1.46-.61-1.04-1.38-1.98-2.08-2.97l2.94-2.07c-1.61-2.28-3.11-4.42-4.7-6.67l-3.19,2.25c-.14-.18-.29-.37-.43-.55-.89-1.13-1.45-2.65-3.31-2.56-.24,.01-.55-.4-.75-.67-4.82-6.68-9.63-13.36-14.43-20.05-1.27-1.76-2.5-3.55-3.77-5.35l7.7-5.42c1.72,2.44,3.4,4.82,5.08,7.21l-2.64,1.86c1.51,2.15,2.98,4.23,4.56,6.47,.9-.63,1.81-1.28,2.72-1.92,1.41,1.91,2.84,3.81,4.22,5.74,3.63,5.08,7.22,10.19,10.88,15.25,.42,.58,1.2,.92,1.83,1.34,.6,.41,1.34,.68,1.8,1.21,.93,1.05,1.73,2.21,2.56,3.35,4.21,5.77,8.41,11.55,12.61,17.32,.13,.18,.3,.34,.49,.55l1.07-.75,10.65-7.51,5,7.1c-4.07,2.87-8.14,5.73-12.21,8.6-.28,.2-.56,.39-.88,.62,.45,.85,.89,1.67,1.32,2.49,.06,1.03,.13,2.05,.19,3.08-.56,1.65-1.66,2.83-3.08,3.84-7.09,5.03-14.16,10.11-21.22,15.19-4.17,3.01-8.31,6.07-12.48,9.08-5.51,3.98-11.04,7.91-16.56,11.89-11.62,8.37-23.23,16.77-34.87,25.13-5.1,3.66-10.29,7.22-15.4,10.87-8.64,6.17-17.26,12.37-25.89,18.56l-1.45-2.05c-6.07,4.28-12.07,8.5-18.1,12.75,.26,.47,.52,.94,.78,1.41-1.66,1.17-3.3,2.36-4.98,3.49-3.08,2.07-6.14,1.46-8.35-1.54-1.1-1.5-2.29-2.95-3.5-4.37-.7-.82-1.62-1.45-2.27-2.3-1.41-1.82-2.72-3.71-4.05-5.58-3.01-4.26-6.01-8.52-9.04-12.83,3.18-2.24,6.52-4.6,9.87-6.95,1.13,1.56,1.95,1.89,3.8,1.31,.91-.29,1.82-.72,2.61-1.26,2.77-1.89,5.46-3.91,8.24-5.78,4.39-2.96,8.88-5.76,13.24-8.77,5.43-3.74,10.76-7.62,16.14-11.43,.99-.7,1.97-1.4,2.96-2.09,.4-.28,.7-.54,.18-.98Zm-38.54,44.41c.03,.31,.05,.62,.08,.92,.4,3.57,2.21,6.14,5.58,7.42,4.02,1.52,8.53-.18,10.96-4.01,2.31-3.64,1.82-8.54-1.16-11.56-2.98-3.02-7.36-3.38-11.25-.92l-1.69-2.4-6.88,4.85c1.32,1.88,2.59,3.69,3.89,5.5,.09,.12,.31,.14,.48,.21Zm135.66-75.61c.22-.18,.45-.36,.73-.59-3.13-2.84-6.17-5.61-9.33-8.47l5.51-3.88c-1.39-1.97-2.72-3.86-4.04-5.74-.09-.12-.21-.23-.38-.42-1.66,1.17-3.3,2.36-4.98,3.5-2.32,1.58-1.49,1.67-3.57-.22-.82-.74-1.31-.8-2.24-.15-21.27,15.03-42.57,30.02-63.87,45.02-.22,.16-.55,.27-.64,.48-.1,.25,0,.59,.01,.89,.25,.51,.5,1.02,.75,1.52l-9.61,6.77c-.4-.45-.76-.84-1.12-1.24-.15-.2-.31-.39-.48-.61-6.93,4.88-13.78,9.73-20.66,14.53-.77,.53-.87,.97-.52,1.8,2.45,5.73,4.86,11.48,7.29,17.23,.54,1.28,1.1,2.55,1.67,3.86,.32-.22,.51-.36,.7-.49,1.13-.76,2.27-1.53,3.4-2.29,.34,.4,.68,.79,1.01,1.16l3.75-2.64c-.27-.49-.51-.92-.75-1.36,.13-.09,.26-.17,.39-.26,32.05-22.58,64.11-45.16,96.16-67.74,.28-.2,.54-.44,.81-.67Zm15.1-25.23c-2.45-3.75-7.65-4.79-11.48-2.29-4.17,2.73-5.66,8.53-3.16,12.32,2.69,4.06,8.24,5.18,12.42,2.48,4.26-2.74,5.29-8.61,2.21-12.52Zm-115.88,61.97l2.26,3.2,3.72-2.62-2.26-3.2-3.72,2.62Z"/><path class="cls-3" d="M207.51,74.05c-1.68-2.38-3.36-4.77-5.08-7.21l-7.7,5.42c1.27,1.8,2.5,3.58,3.77,5.35,4.8,6.69,9.61,13.37,14.43,20.05,.2,.27,.51,.68,.75,.67,1.87-.09,2.43,1.43,3.31,2.56,.14,.18,.29,.37,.43,.55-.49,.36-.99,.71-1.48,1.07-.41-.52-.84-1.02-1.23-1.56-.63-.85-1.17-1.72-2.47-1.66-.35,.02-.81-.54-1.09-.93-5.77-8.02-11.52-16.05-17.28-24.07-.2-.28-.4-.57-.68-.97-4.23,2.98-8.39,5.91-12.62,8.89l-4.27-6.07c3.45-2.43,6.86-4.83,10.46-7.37-1.52,.37-14.48,9.23-16.98,11.52l3.38,4.8-9.53,6.72-3.45-4.89c-1.04,.73-1.98,1.39-2.92,2.06-15.84,11.23-31.67,22.46-47.51,33.68-8.16,5.78-16.34,11.53-24.5,17.31-5.8,4.11-11.54,8.29-17.38,12.34-2.68,1.86-5.54,3.45-8.28,5.23-.72,.47-1.27,1.19-1.9,1.8-.25,.24-.49,.5-.77,.71-1.58,1.15-3.22,2.22-4.72,3.46-.97,.81-1.86,1.79-2.53,2.86-.31,.49-.25,1.48,.05,2.02,.7,1.3,1.65,2.46,2.5,3.68-.51,.36-1.02,.73-1.53,1.09-.96-1.37-1.92-2.75-2.88-4.12-.56-.8-.59-1.64,.05-2.37,.89-1.02,1.77-2.07,2.81-2.92,1.59-1.31,3.56-2.25,4.93-3.75,2.33-2.55,5.19-4.35,8.09-5.99,6.46-3.65,12.14-8.39,18.23-12.54,10.36-7.06,20.5-14.43,30.73-21.67,15.42-10.93,30.84-21.86,46.26-32.79,.25-.18,.48-.37,.82-.64l-1.79-2.54,9.54-6.72,1.82,2.59c.44-.31,.78-.55,1.12-.79,4.84-3.43,9.68-6.86,14.53-10.28,1.35-.95,2.74-1.81,4.47-1.87,.15,0,.31-.07,.43-.15,2.74-1.92,5.48-3.86,8.29-5.84-2.47-3.51-4.89-6.94-7.31-10.37,.34-.24,.69-.49,1.15-.81,2.43,3.44,4.82,6.84,7.28,10.34l16.39-11.55,4.28,6.08c-5.43,3.83-10.85,7.64-16.36,11.52,1.73,2.45,3.38,4.8,5.12,7.27l-1.19,.84Z"/><path class="cls-3" d="M189.32,48.26c-1.33-1.88-2.66-3.76-3.99-5.65-2.26-3.2-5.1-3.78-8.38-1.63-1.76,1.15-3.45,2.4-5.17,3.61-1.84,1.3-3.67,2.6-5.5,3.9-17.55,12.45-35.11,24.88-52.66,37.34-7.32,5.2-14.6,10.46-21.93,15.66-9.26,6.58-18.55,13.13-27.82,19.69-4.24,3-8.49,5.97-12.73,8.97-2.48,1.76-4.93,3.58-7.39,5.36-.22,.16-.45,.4-.69,.42-2.49,.17-4.08,1.99-5.99,3.21-1.08,.69-2.18,1.36-3.24,2.09-.68,.47-1.5,.85-1.39,1.95,.02,.23-.38,.56-.65,.76-1.8,1.37-3.59,2.76-5.45,4.05-1.33,.92-1.95,2.29-2.58,3.67-.72-1.72,.13-4.52,1.83-5.84,1.95-1.5,3.94-2.94,5.87-4.47,.37-.29,.53-.85,.8-1.28,.2-.31,.36-.69,.65-.89,2.46-1.73,4.93-3.44,7.43-5.1,.5-.33,1.16-.4,1.73-.61,.5-.19,1.05-.33,1.48-.63,4.68-3.32,9.33-6.69,14.01-10.01,10.03-7.13,20.06-14.24,30.1-21.35,4.02-2.84,8.05-5.66,12.07-8.5,17.31-12.25,34.62-24.51,51.93-36.77,3.53-2.5,7.08-4.99,10.76-7.58-.48-.68-.94-1.21-1.24-1.82-.14-.27-.09-.88,.1-1.03,1.29-1,2.65-1.91,4.11-2.94l1.58,2.24c.3-.15,.48-.21,.63-.32,2.22-1.58,4.41-3.19,6.65-4.73,1.31-.9,2.64-1.84,4.08-2.51,2.17-1.01,4.72-.35,6.21,1.61,2.02,2.67,3.89,5.47,5.9,8.33l-1.12,.79Z"/><path class="cls-6" d="M81.12,215.44c-3.34,2.36-6.69,4.71-9.87,6.95,3.03,4.3,6.03,8.57,9.04,12.83,1.33,1.88,2.64,3.77,4.05,5.58,.66,.85,1.58,1.48,2.27,2.3,1.21,1.42,2.4,2.87,3.5,4.37,2.21,3.01,5.27,3.61,8.35,1.54,1.68-1.13,3.32-2.33,4.98-3.49,.51,.73,1.02,1.45,1.7,2.41-1.83,1.29-3.57,2.59-5.38,3.76-1.32,.86-2.61,1.83-4.35,1.81-1.9-.02-3.4-.75-4.53-2.23-.86-1.11-1.62-2.29-2.47-3.42-.37-.49-.75-1.06-1.27-1.35-1.72-.97-2.62-2.64-3.71-4.14-3.8-5.24-7.59-10.49-11.38-15.74-.74-1.03-1.46-2.07-2.26-3.21-3.33,2.34-6.57,4.62-9.89,6.96l-4.96-7.04c.32-.25,.63-.52,.97-.76,2.81-1.98,5.6-3.99,8.44-5.92,.83-.56,1.01-.97,.35-1.82-1.15-1.47-2.17-3.04-3.36-4.72,.48-.34,.9-.64,1.33-.94,1.36,1.93,2.72,3.86,4.08,5.8,3-2.11,5.82-4.1,8.64-6.09,.52-.39,1.03-.77,1.55-1.16,3.63-2.55,7.25-5.11,10.96-7.72,1.67,2.37,3.27,4.64,5,7.09-3.42,2.41-6.85,4.82-10.27,7.24-.5,.36-1.01,.72-1.51,1.09Z"/><path class="cls-6" d="M122.2,233.41c8.63-6.19,17.25-12.39,25.89-18.56,5.11-3.65,10.3-7.21,15.4-10.87,11.64-8.36,23.24-16.76,34.87-25.13,5.51-3.97,11.05-7.91,16.56-11.89,4.17-3.01,8.3-6.08,12.48-9.08,7.06-5.08,14.12-10.16,21.22-15.19,1.42-1.01,2.51-2.19,3.08-3.84,.99,2.37,.33,4.88-1.71,6.35-5.03,3.63-10.07,7.25-15.1,10.87-8.14,5.85-16.28,11.71-24.43,17.56-6.69,4.8-13.38,9.6-20.06,14.41-5.22,3.76-10.44,7.54-15.66,11.3-1.29,.93-2.58,1.85-3.87,2.77-3.03,2.14-6.05,4.27-9.08,6.41-12.72,8.97-25.43,17.93-38.15,26.9l-1.44-2.03Z"/><path class="cls-6" d="M252.92,65.28c1.85,2.63,3.66,5.17,5.42,7.75,.14,.21-.07,.69-.18,1.03-.04,.12-.24,.19-.37,.28-9.42,6.63-18.84,13.27-28.25,19.9-.28,.2-.57,.4-.94,.66-1.97-2.8-3.89-5.52-5.88-8.34,10-7.04,20.03-14.11,30.19-21.27Z"/><path class="cls-3" d="M123.64,235.44c12.72-8.97,25.43-17.93,38.15-26.9,3.03-2.14,6.05-4.27,9.08-6.41,.91,1.3,1.83,2.59,2.78,3.95-15.74,11.08-31.45,22.15-47.25,33.28l-2.76-3.92Z"/><path class="cls-5" d="M68.38,197.9c-2.74,1.94-5.48,3.88-8.22,5.82-1.79-2.54-3.58-5.08-5.36-7.61-.47,.19-.78,.31-1.11,.44l-8.74-12.4c3.02-2.12,6.04-4.23,9.05-6.35,4.79,6.7,9.58,13.4,14.37,20.1Z"/><path class="cls-5" d="M205.56,65.56c4.32-3.05,8.57-6.03,12.88-9.07,2.6,3.69,5.2,7.38,7.85,11.14l-12.88,9.07c-2.6-3.69-5.19-7.37-7.85-11.14Z"/><path class="cls-6" d="M230.2,170.32c-.48,.34-.8,.56-1.11,.78-6.96,4.9-13.94,9.79-20.88,14.74-.94,.67-1.4,.57-1.98-.38-.75-1.23-1.62-2.39-2.49-3.55-.46-.61-.37-1,.25-1.43,7.16-5.03,14.31-10.08,21.49-15.09,.28-.2,1.02-.23,1.16-.05,1.2,1.57,2.32,3.22,3.56,4.98Z"/><path class="cls-6" d="M192.04,22.29c2.44,3.46,4.83,6.86,7.25,10.29l-12.03,8.47c-2.43-3.45-4.82-6.85-7.25-10.29,4.03-2.84,8.01-5.64,12.03-8.47Z"/><path class="cls-3" d="M32.95,179.28c-6.56,4.62-12.96,9.13-19.46,13.71l-3.84-5.45c.33-.26,.63-.51,.94-.73,5.78-4.07,11.57-8.12,17.32-12.23,.93-.66,1.42-.58,2.02,.37,.91,1.44,1.95,2.81,3.02,4.33Z"/><path class="cls-6" d="M270.88,132.85l1.93,2.74c-12.05,8.49-24.05,16.94-36.12,25.44l-1.93-2.74c12.03-8.48,24.04-16.93,36.12-25.44Z"/><path class="cls-3" d="M77.69,155.25c.88-.62,1.76-1.24,2.64-1.85,1-.71,1.05,.46,1.53,.77,1.26,1.79,2.52,3.58,3.85,5.47l-4.54,3.2c-.6,.43-1.2,.86-1.8,1.28l-8.73,6.15c-.74-1.05-1.38-1.96-2.03-2.88-.87-1.23-1.74-2.47-2.71-3.85,4.03-2.84,7.9-5.57,11.78-8.3Z"/><path class="cls-6" d="M44.96,184.14l8.74,12.4c.33-.13,.63-.25,1.11-.44,1.78,2.52,3.57,5.06,5.36,7.61-3.53,2.49-7.06,4.97-10.65,7.5l-5.36-7.61,8.31-5.86c-2.98-4.23-5.88-8.35-8.89-12.63l1.39-.98Z"/><path class="cls-3" d="M81.37,245.17l5.73,8.13c-3.18,2.24-6.32,4.45-9.51,6.7-1.91-2.71-3.79-5.38-5.73-8.13l9.51-6.7Z"/><path class="cls-5" d="M246.39,119.27l-5.35-7.59,8.84-6.22c1.76,2.49,3.53,5.02,5.35,7.59-2.92,2.05-5.83,4.11-8.84,6.22Z"/><path class="cls-3" d="M93.78,262.32l-2.72-3.87c.28-.23,.53-.46,.81-.66,4.21-2.97,8.43-5.92,12.62-8.92,.79-.57,1.23-.53,1.74,.31,.61,.99,1.33,1.91,2.04,2.93-4.85,3.42-9.62,6.78-14.49,10.2Z"/><path class="cls-3" d="M247.61,124.47l-1.07,.75c-.19-.21-.35-.36-.49-.55-4.21-5.77-8.41-11.55-12.61-17.32-.83-1.14-1.63-2.3-2.56-3.35-.47-.52-1.2-.8-1.8-1.21-.63-.43-1.4-.76-1.83-1.34-3.66-5.06-7.25-10.17-10.88-15.25-1.38-1.93-2.81-3.83-4.22-5.74,.35-.24,.69-.49,1.27-.9,.74,1.05,1.47,2.09,2.21,3.13,3.75,5.32,7.48,10.67,11.29,15.95,.48,.67,1.39,1.04,2.09,1.56,.67,.5,1.49,.89,1.97,1.54,3.09,4.12,6.08,8.3,9.14,12.45,2.29,3.1,4.62,6.18,6.92,9.27,.23,.31,.39,.67,.58,1.01Z"/><path class="cls-5" d="M75.39,208.9c-2.82,1.99-5.64,3.97-8.64,6.09-1.37-1.94-2.73-3.87-4.08-5.8,2.82-1.99,5.63-3.97,8.45-5.96,1.43,1.89,2.85,3.78,4.28,5.67Z"/><path class="cls-3" d="M60.64,233.31l3.72,5.28c-2.07,1.46-4.09,2.88-6.17,4.35l-3.72-5.28,6.17-4.35Z"/><path class="cls-3" d="M66.23,112.23l-9.07,6.39-2.47-3.5,9.07-6.39,2.47,3.5Z"/><path class="cls-3" d="M68.38,197.9c-4.79-6.7-9.58-13.4-14.37-20.1,.48-.34,.95-.67,1.72-1.21,4.34,6.17,8.7,12.34,13.05,18.52,.38,.58,.76,1.16,1.14,1.74-.51,.35-1.02,.7-1.53,1.05Z"/><path class="cls-3" d="M255.5,95.41c1.71-1.21,3.33-2.34,5.01-3.53l3.05,4.33-5.01,3.53c-1.02-1.44-1.99-2.83-3.05-4.33Z"/><path class="cls-6" d="M232.03,40.92l4.55-3.2,2.79,3.97c-1.38,.97-2.72,1.94-4.1,2.86-.16,.11-.64,.02-.75-.13-.84-1.11-1.62-2.26-2.49-3.49Z"/><path class="cls-6" d="M29.65,165.57c.39-.31,.79-.61,1.34-1.04,3.56,5.05,7.07,10.04,10.58,15.02-.37,.26-.74,.52-1.39,.98-3.55-5.04-7.04-10-10.53-14.96Z"/><path class="cls-5" d="M37.68,208.5l3.03,4.3-3.4,2.4-3.03-4.3,3.4-2.4Z"/><path class="cls-3" d="M75.39,208.9c-1.43-1.89-2.85-3.78-4.28-5.67,.5-.35,1-.71,1.59-1.12,.41,.51,.8,.98,1.18,1.45,1.02,1.39,2.04,2.79,3.06,4.18-.52,.39-1.03,.77-1.55,1.16Z"/><path class="cls-3" d="M251.79,85.39l1.44,2.05-2.43,1.71c-2.07-2.28-2.01-2.03,.99-3.76Z"/><path class="cls-6" d="M24.25,155.06l3.55,5.04c-.52,.37-.94,.66-1.36,.96-.67-1.08-1.36-2.15-1.99-3.25-.5-.87-.74-1.79-.2-2.74Z"/><path class="cls-3" d="M34.23,196.77l2.39-1.68,1.45,2.06-2.39,1.68-1.45-2.06Z"/><path class="cls-3" d="M251.5,135.77c-.43-.82-.87-1.64-1.32-2.49,.32-.22,.6-.42,.88-.62,.15,1.03,.3,2.07,.45,3.1Z"/><path class="cls-6" d="M92.88,106.62c9.13-6.43,18.26-12.86,27.47-19.35l2.3,3.27c-28.95,20.39-57.9,40.78-86.9,61.21l-2.29-3.24c18.5-13.03,37-26.06,55.51-39.1,.29,.35,.58,.69,.9,1.08l3.71-2.61c-.26-.47-.48-.86-.7-1.26Z"/><path class="cls-6" d="M50.06,146.7l5.34,7.57c-3.49,2.46-6.95,4.89-10.47,7.37l-5.34-7.57c3.44-2.42,6.92-4.88,10.47-7.37Z"/><path class="cls-3" d="M59.39,151.96l-4.84-6.86,8.06-5.67,4.84,6.86c-2.66,1.88-5.32,3.74-8.06,5.67Z"/><path class="cls-7" d="M92.88,106.62c.22,.4,.44,.8,.7,1.26l-3.71,2.61c-.32-.39-.61-.73-.9-1.08-.54-.76-1.07-1.52-1.66-2.36l3.93-2.77,1.64,2.33Z"/><path class="cls-3" d="M134.01,77.48l2.9-2.04,1.72,2.44-2.9,2.04-1.72-2.44Z"/><path class="cls-3" d="M155.45,108.56c4.94-3.49,9.87-7,14.83-10.46,.5-.35,1.2-.58,1.81-.6,3.49-.11,6.94,.17,10.3,1.21,7.19,2.23,9.5,7.6,8.25,14.5-.17,.96-.46,1.9-.77,2.82-.86,2.56-2.19,4.68-4.59,6.23-4.29,2.77-8.38,5.86-12.56,8.8-.36,.26-.8,.4-1.21,.6,.37-.34,.75-.67,1.1-1.02,1.93-1.96,2.94-4.41,3.67-7.01,3.41-2.41,6.83-4.81,10.24-7.23,.51-.36,1.19-.75,.7-1.48-.54-.81-1.15-.22-1.71,.12-.32,.2-.64,.39-.92,.56-.16-.1-.24-.13-.29-.19q-1.77-2.11,.44-3.67c1.18-.83,2.39-1.63,3.52-2.52,.28-.22,.29-.77,.42-1.17-.45-.05-.91-.21-1.33-.12-.35,.07-.65,.41-.97,.64-1.52,1.07-3.05,2.15-4.59,3.23-.5-.61-.91-1.11-1.38-1.67-1.98,1.39-3.86,2.72-5.74,4.04-.22-.41-.44-.81-.67-1.22,4.11-2.9,8.21-5.81,12.32-8.71,.29-.2,.67-.36,.82-.64,.17-.32,.25-.81,.12-1.12-.07-.18-.66-.21-1-.17-.24,.03-.46,.27-.68,.43-4.2,2.97-8.41,5.94-12.61,8.91-.76-.7-1.52-1.4-2.28-2.11,3.46-2.47,6.92-4.95,10.37-7.42,.29-.2,.66-.36,.82-.64,.18-.33,.17-.76,.25-1.15-.38-.07-.77-.2-1.15-.19-.2,0-.4,.23-.59,.36-3.74,2.69-7.47,5.38-11.21,8.07-1.21-.47-2.42-.93-3.62-1.4,2.56-1.86,5.12-3.71,7.67-5.57,.38-.27,.79-.54,1.06-.9,.17-.23,.25-.76,.11-.92-.2-.23-.65-.32-1-.32-.23,0-.47,.24-.69,.4-3.18,2.32-6.37,4.64-9.55,6.96-2.73-.05-5.3,.56-7.76,1.73Z"/><path class="cls-6" d="M215.95,102.51c.49-.36,.99-.71,1.48-1.07,1.04-.74,2.09-1.47,3.19-2.25,1.58,2.25,3.09,4.39,4.7,6.67-.98,.69-1.96,1.38-2.94,2.07-.5,.34-1.01,.68-1.51,1.03-8.01,5.63-16.02,11.26-24.03,16.89-.38,.27-.76,.53-1.3,.91-.96-1.37-1.88-2.66-2.79-3.96q-1.82-2.58,.76-4.4c7.08-4.99,14.16-9.97,21.24-14.96,.41-.29,.8-.62,1.2-.93Z"/><path class="cls-5" d="M120.08,119.72c8.23-5.8,16.4-11.55,24.64-17.35,1.79,2.54,3.57,5.07,5.39,7.65-8.21,5.78-16.4,11.55-24.64,17.35l-5.39-7.65Z"/><path class="cls-6" d="M79.38,164.13c.6-.43,1.2-.86,1.8-1.28,.13,.98,.25,1.96,.4,3.16l1.71-1.21c2.69,3.82,5.32,7.55,8.03,11.39l-3.5,2.46c2.41,2.67,5.07,4.76,8.21,6.25,.7,.89,1.4,1.77,2.09,2.66-.65-.16-1.35-.22-1.95-.5-3.54-1.62-6.69-3.83-9.33-6.7-.55-.59-.93-.48-1.48-.09-2.03,1.45-4.08,2.88-6.12,4.32-.34,.24-.69,.48-1.1,.78l-7.93-11.26c.32-.25,.63-.53,.96-.77,2.49-1.76,4.94-3.56,7.48-5.24,1-.66,1.42-1.35,1.05-2.51-.15-.48-.21-.99-.31-1.48Z"/><path class="cls-3" d="M140.89,160.31c2.72-1.9,5.45-3.79,8.16-5.7,7.03-4.94,14.05-9.89,21.07-14.84,.38-.26,.75-.53,1.18-.83l2.71,3.85-1.11,.78c-10.76,7.58-21.51,15.15-32.27,22.73-.41,.29-.81,.61-1.22,.91-.9,.62-1.79,1.24-2.69,1.87-.32-.02-.79,.08-.92-.09-.82-1.06-1.57-2.17-2.41-3.37,1.88-1.33,3.65-2.57,5.41-3.81,.7-.5,1.39-1,2.09-1.5Z"/><path class="cls-7" d="M98.12,187.57c-.7-.89-1.4-1.77-2.09-2.66-.4-.66-.79-1.31-1.19-1.97,6.4-4.51,12.73-8.97,19.11-13.46l4.66,6.62c-5.3,3.73-10.55,7.43-15.8,11.13-.65,.45-1.29,.89-1.94,1.34q-1.38,.97-2.75-1Z"/><path class="cls-3" d="M220.87,108.96c.5-.34,1.01-.68,1.51-1.03,.71,.98,1.47,1.93,2.08,2.97,.23,.38,.27,1.06,.09,1.46-.28,.62-.33,1,.16,1.55,1.07,1.22,1.18,2.42,.25,3.74-.62,.87-1.42,1.66-2.27,2.32-1.47,1.15-3.03,2.17-4.6,3.27l1.93,2.74-7.6,5.36-1.86-2.63c-.45,.28-.81,.48-1.14,.72-18.05,12.89-36.1,25.77-54.16,38.66-5.31,3.79-10.62,7.57-15.94,11.34-.4,.28-.86,.91-1.25-.03,12.61-8.95,25.24-17.89,37.84-26.85,8.21-5.84,16.4-11.72,24.6-17.57,2.88-2.06,5.78-4.1,8.71-6.09,.79-.54,.83-.95,.26-1.65-.61-.75-1.12-1.57-1.71-2.4,2.62-1.85,5.1-3.59,7.71-5.43l2.37,3.37c1.75-1.48,3.5-2.73,4.95-4.26,1.26-1.33,1.08-2.5,.05-4.03-.24-.35-.13-.94-.17-1.43-.04-.53,.09-1.15-.14-1.58-.47-.89-1.12-1.69-1.7-2.52Z"/><path class="cls-6" d="M140.89,160.31c-.7,.5-1.39,1-2.09,1.5,0-.19-.03-.39,0-.58,.93-8.85-1.72-16.47-8.1-22.64-4.94-4.78-10.96-7.26-17.86-7.49h.03c-8.6-.48-15.94,2.48-22.23,8.2-4.44,4.04-7.22,9.1-8.77,14.87-.48-.31-.54-1.48-1.53-.77,.61-3.31,2.07-6.29,3.82-9.11,2.46-3.95,5.7-7.21,9.6-9.73,6.05-3.93,12.67-5.81,19.94-5.28,3.26,.24,6.38,.99,9.43,2.1,1.23,.59,2.46,1.18,3.69,1.78,.5,.34,1.01,.69,1.51,1.04,.84,.59,1.67,1.19,2.51,1.78,.41,.39,.82,.78,1.23,1.16,.64,.69,1.29,1.38,1.93,2.08l1.1,1.31c.63,.92,1.25,1.85,1.88,2.77,.26,.5,.53,.99,.79,1.49,.47,1.01,.93,2.02,1.4,3.03,.18,.55,.36,1.1,.55,1.65,.33,1.46,.65,2.92,.98,4.38,.07,2.15,.14,4.31,.21,6.46Z"/><path class="cls-3" d="M140.68,153.84c-.33-1.46-.65-2.92-.98-4.38,6.82-4.82,13.63-9.63,20.45-14.45,2.19-.2,4.38-.34,6.56-.64,.89-.12,1.73-.6,2.59-.92-.28,.21-.55,.44-.84,.64-9.26,6.58-18.51,13.16-27.77,19.74Z"/><path class="cls-5" d="M184.9,94.07c1.55-1.09,3.1-2.19,4.69-3.3,3.8,5.39,7.56,10.73,11.37,16.15l-4.69,3.3c-3.78-5.37-7.56-10.73-11.37-16.15Z"/><path class="cls-6" d="M169.29,133.46c-.86,.32-1.7,.8-2.59,.92-2.17,.3-4.37,.43-6.56,.64-.72-.17-1.43-.35-2.15-.52-1.13-.53-2.26-1.05-3.39-1.58-.46-.35-.93-.7-1.39-1.05-.78-.85-1.57-1.69-2.35-2.54-.31-.46-.62-.92-.94-1.37-.38-.91-.75-1.82-1.13-2.73-.14-.57-.27-1.13-.41-1.7-.07-1.25-.14-2.51-.21-3.76,.13-.78,.26-1.55,.4-2.33,.87-2.74,2.32-5.13,4.4-7.13,.82-.58,1.64-1.16,2.47-1.74,2.46-1.16,5.03-1.78,7.76-1.72,.8,.11,1.6,.23,2.39,.34,1.21,.47,2.42,.93,3.62,1.4,.5,.33,1,.65,1.5,.98,.76,.7,1.52,1.4,2.28,2.11,.34,.43,.69,.87,1.03,1.3,.22,.41,.44,.81,.67,1.22-.26,.22-.51,.44-.89,.75l2.33,3.31c.12,1.06,.24,2.12,.36,3.18-.07,.74-.15,1.47-.22,2.21-.73,2.6-1.73,5.05-3.67,7.01-.35,.36-.73,.68-1.1,1.02-.74,.6-1.48,1.19-2.22,1.79Zm3.38-19.66c-3.22-5.96-12.19-7.28-17.64-3.35-5.83,4.21-7.28,12.05-3.16,17.91,4.07,5.8,12.02,7.19,17.83,3.16,6.14-4.26,7.12-13.21,2.98-17.72Z"/><path class="cls-3" d="M152.98,110.3c-2.08,2-3.53,4.39-4.4,7.13-7.26,5.24-14.52,10.48-21.78,15.71-1.23-.59-2.46-1.18-3.69-1.78,9.95-7.02,19.91-14.05,29.86-21.07Z"/><path class="cls-6" d="M100.87,188.56c.65-.45,1.29-.89,1.94-1.34,2.78,.72,5.62,.8,8.46,.54,6.85-.62,12.81-3.29,17.91-7.91,3.34-3.02,5.91-6.57,7.55-10.77,.9-.62,1.79-1.24,2.69-1.87-1.81,5.95-5.23,10.91-9.92,14.84-6.48,5.43-14.08,8.02-22.6,7.61-1.67-.08-3.32-.42-4.98-.68-.37-.06-.7-.28-1.06-.42Z"/><path class="cls-3" d="M81.12,215.44c.5-.36,1.01-.72,1.51-1.09,.71,.99,1.74,1.24,2.81,.92,1.07-.32,2.16-.72,3.07-1.35,5.66-3.9,11.09-8.16,16.94-11.75,7.89-4.86,15.15-10.6,22.83-15.74,.53,.43,.22,.7-.18,.98-.99,.69-1.98,1.39-2.96,2.09-5.38,3.82-10.71,7.69-16.14,11.43-4.36,3-8.85,5.81-13.24,8.77-2.78,1.87-5.47,3.89-8.24,5.78-.79,.54-1.69,.97-2.61,1.26-1.85,.59-2.67,.25-3.8-1.31Z"/><path class="cls-3" d="M225.39,155.22c-2.05-1.91-4.1-3.82-6.15-5.73-.69-.64-1.43-1.22-2.07-1.9-.71-.75-1.27-.77-2.16-.15-9.52,6.76-19.08,13.47-28.63,20.2-.35,.25-.7,.49-1.11,.78-1.47-2.09-2.9-4.11-4.41-6.26,4.88-3.44,9.75-6.87,14.63-10.3,4.88-3.44,9.76-6.87,14.77-10.41-.63-.59-1.12-1.13-1.7-1.56-.21-.16-.62-.1-.93-.04-.21,.04-.39,.25-.58,.38-21.4,15.07-42.79,30.14-64.19,45.21-.1,.07-.18,.14-.28,.22-.01-.3-.12-.64-.01-.89,.09-.21,.42-.33,.64-.48,21.3-15,42.6-29.99,63.87-45.02,.93-.66,1.42-.6,2.24,.15,2.08,1.89,1.25,1.79,3.57,.22,1.67-1.14,3.31-2.33,4.98-3.5,.18,.19,.29,.29,.38,.42,1.33,1.88,2.65,3.76,4.04,5.74l-5.51,3.88c3.16,2.87,6.2,5.63,9.33,8.47-.28,.23-.51,.41-.73,.59Z"/><path class="cls-7" d="M240.5,130c3.08,3.9,2.04,9.77-2.21,12.52-4.17,2.69-9.73,1.58-12.42-2.48-2.5-3.79-1.02-9.59,3.16-12.32,3.82-2.5,9.02-1.46,11.48,2.29Zm-9.53,7.15c.86,1.35,2.74,1.79,4.12,.95,1.44-.88,1.91-2.8,1.03-4.18-.91-1.43-2.69-1.89-4.07-1.05-1.49,.92-1.98,2.85-1.08,4.27Z"/><path class="cls-7" d="M93.95,222.69c3.89-2.46,8.27-2.1,11.25,.92,2.98,3.02,3.47,7.92,1.16,11.56-2.43,3.83-6.94,5.53-10.96,4.01-3.38-1.28-5.19-3.85-5.58-7.42-.03-.31-.06-.62-.08-.93,2.18-1.53,4.35-3.07,6.65-4.69l-2.44-3.46Zm7.61,5.99c-1.13-1.55-3.16-1.92-4.64-.85-1.46,1.06-1.77,2.95-.72,4.44,1.06,1.5,3.25,1.91,4.66,.88,1.42-1.04,1.73-3.05,.7-4.47Z"/><path class="cls-6" d="M93.95,222.69l2.44,3.46c-2.3,1.62-4.48,3.15-6.65,4.69-.16-.07-.39-.08-.48-.21-1.29-1.8-2.56-3.62-3.89-5.5l6.88-4.85,1.69,2.4Z"/><path class="cls-6" d="M132.63,192.71c-6.79,4.77-13.59,9.54-20.36,14.34-.29,.21-.55,.9-.43,1.2,2.83,6.84,5.72,13.65,8.6,20.46,.04,.11,.12,.2,.18,.3-.19,.13-.38,.27-.7,.49-.57-1.31-1.13-2.58-1.67-3.86-2.43-5.74-4.84-11.5-7.29-17.23-.35-.82-.25-1.26,.52-1.8,6.88-4.8,13.73-9.64,20.66-14.53,.18,.22,.33,.42,.48,.61Z"/><path class="cls-3" d="M124.03,226.72q-1.44-2.11,.63-3.56,1.89-1.33,3.38,.73c.24,.43,.48,.86,.75,1.36l-3.75,2.64c-.32-.37-.67-.77-1.01-1.16Z"/><path class="cls-7" d="M124.62,191.97l3.72-2.62,2.26,3.2-3.72,2.62-2.26-3.2Z"/><path class="cls-5" d="M136.73,169.08c-1.64,4.21-4.21,7.75-7.55,10.77-5.1,4.62-11.06,7.29-17.91,7.91-2.84,.26-5.67,.17-8.46-.54,5.25-3.7,10.51-7.4,15.8-11.13l-4.66-6.62c-6.38,4.49-12.71,8.95-19.11,13.46,.4,.66,.8,1.32,1.19,1.97-3.13-1.48-5.8-3.58-8.21-6.25l3.5-2.46c-2.7-3.84-5.34-7.57-8.03-11.39l-1.71,1.21c-.15-1.2-.28-2.18-.4-3.16,1.45-1.02,2.91-2.05,4.54-3.2-1.33-1.89-2.59-3.68-3.85-5.47,1.55-5.77,4.33-10.82,8.77-14.87,6.29-5.73,13.63-8.69,22.23-8.2-1.82,1.33-3.64,2.66-5.47,3.98-1.64,1.18-3.3,2.33-4.96,3.5l4.05,5.75,10.47-7.38-4.12-5.85c6.9,.23,12.92,2.71,17.86,7.49,6.38,6.18,9.03,13.8,8.1,22.64-.02,.19,0,.39,0,.58-1.77,1.24-3.53,2.49-5.41,3.81,.84,1.2,1.59,2.31,2.41,3.37,.13,.17,.61,.06,.92,.09Zm-19.09-15.45c-3.02-4.25-8.84-5.24-13.06-2.21-4.18,3-5.18,8.79-2.25,12.99,2.94,4.22,8.84,5.25,13.08,2.28,4.24-2.98,5.24-8.81,2.23-13.06Zm4.82-7.8l2.78-1.96-2.02-2.87-2.78,1.96,2.02,2.87Z"/><path class="cls-5" d="M176.15,118.25l-2.33-3.31c.37-.32,.63-.54,.89-.75,1.88-1.32,3.76-2.65,5.74-4.04,.46,.56,.87,1.06,1.38,1.67,1.54-1.08,3.06-2.16,4.59-3.23,.32-.22,.62-.57,.97-.64,.42-.08,.89,.07,1.33,.12-.13,.4-.15,.95-.42,1.17-1.13,.9-2.34,1.69-3.52,2.52q-2.22,1.56-.44,3.67c.05,.06,.12,.08,.29,.19,.28-.17,.6-.37,.92-.56,.55-.34,1.17-.93,1.71-.12,.49,.73-.19,1.12-.7,1.48-3.41,2.41-6.83,4.82-10.24,7.23,.07-.74,.15-1.47,.22-2.21q1.37-.87,.43-2.2c-.24-.34-.52-.65-.79-.98Z"/><path class="cls-5" d="M174.04,112.96c-.34-.43-.69-.87-1.03-1.3,4.2-2.97,8.4-5.94,12.61-8.91,.22-.16,.44-.4,.68-.43,.34-.04,.93,0,1,.17,.13,.31,.05,.8-.12,1.12-.15,.28-.53,.43-.82,.64-4.11,2.9-8.21,5.81-12.32,8.71Z"/><path class="cls-5" d="M170.73,109.55c-.5-.33-1-.65-1.5-.98,3.74-2.69,7.47-5.38,11.21-8.07,.19-.14,.39-.36,.59-.36,.38,0,.77,.12,1.15,.19-.07,.39-.06,.82-.25,1.15-.16,.28-.53,.44-.82,.64-3.46,2.47-6.92,4.95-10.37,7.42Z"/><path class="cls-5" d="M165.6,107.18c-.8-.11-1.6-.23-2.39-.34,3.18-2.32,6.36-4.64,9.55-6.96,.22-.16,.46-.4,.69-.4,.34,0,.79,.09,1,.32,.14,.16,.06,.7-.11,.92-.27,.36-.69,.62-1.06,.9-2.55,1.86-5.11,3.71-7.67,5.57Z"/><path class="cls-3" d="M154.62,132.92c1.13,.53,2.26,1.05,3.39,1.58-6.28,4.44-12.57,8.88-18.85,13.31-.47-1.01-.93-2.02-1.4-3.03,5.62-3.96,11.24-7.91,16.86-11.87Z"/><path class="cls-3" d="M148.19,119.76c.07,1.25,.14,2.51,.21,3.76-.26,.16-.54,.31-.79,.49-5.6,3.98-11.19,7.97-16.78,11.95-.84-.59-1.67-1.19-2.51-1.78,6.62-4.81,13.25-9.62,19.87-14.42Z"/><path class="cls-3" d="M150.87,129.33c.78,.85,1.57,1.69,2.35,2.54-5.42,3.81-10.84,7.62-16.25,11.43-.63-.92-1.25-1.85-1.88-2.77,5.26-3.73,10.52-7.46,15.78-11.2Z"/><path class="cls-3" d="M148.81,125.22c.38,.91,.75,1.82,1.13,2.73-5.32,3.75-10.63,7.5-15.95,11.26-.64-.69-1.29-1.38-1.93-2.08,5.58-3.97,11.17-7.94,16.75-11.91Z"/><path class="cls-5" d="M148.19,119.76c-6.62,4.81-13.25,9.62-19.87,14.42-.5-.35-1-.69-1.51-1.04,7.26-5.24,14.52-10.48,21.78-15.71-.13,.78-.26,1.55-.4,2.33Z"/><path class="cls-5" d="M139.16,147.81c6.28-4.44,12.57-8.88,18.85-13.31,.72,.17,1.43,.35,2.15,.52-6.82,4.82-13.63,9.63-20.45,14.45-.18-.55-.36-1.1-.55-1.65Z"/><path class="cls-5" d="M148.81,125.22c-5.58,3.97-11.17,7.94-16.75,11.91-.41-.39-.82-.78-1.23-1.16,5.59-3.98,11.19-7.97,16.78-11.95,.25-.18,.53-.33,.79-.49,.14,.57,.27,1.13,.41,1.7Z"/><path class="cls-5" d="M133.99,139.21c5.32-3.75,10.63-7.5,15.95-11.26,.31,.46,.62,.92,.94,1.37-5.26,3.73-10.52,7.46-15.78,11.2-.37-.44-.73-.88-1.1-1.31Z"/><path class="cls-5" d="M136.97,143.29c5.42-3.81,10.84-7.62,16.25-11.43,.46,.35,.93,.7,1.39,1.05-5.62,3.96-11.24,7.91-16.86,11.87-.26-.5-.53-.99-.79-1.49Z"/><path class="cls-5" d="M172.67,113.8c4.14,4.5,3.16,13.46-2.98,17.72-5.81,4.03-13.76,2.64-17.83-3.16-4.12-5.86-2.67-13.7,3.16-17.91,5.46-3.94,14.43-2.61,17.64,3.35Zm-16.75,11.77c2.53,3.59,7.4,4.43,10.98,1.88,3.5-2.49,4.34-7.4,1.87-10.92-2.49-3.55-7.47-4.4-11.01-1.87-3.52,2.5-4.34,7.37-1.84,10.91Z"/><path class="cls-3" d="M176.15,118.25c.26,.33,.54,.64,.79,.98q.95,1.33-.43,2.2c-.12-1.06-.24-2.12-.36-3.18Z"/><path class="cls-3" d="M141.58,203.21l4.77-3.36-2.98-4.23,21.27-14.99,3.31,4.7c-6.94,4.89-13.88,9.77-20.94,14.75,1.16,1.64,2.23,3.16,3.3,4.68-1.68,1.18-3.35,2.36-5.11,3.6l-3.62-5.15Z"/><path class="cls-3" d="M133.42,210.94l-7.55,5.32-4.56-6.47c2.49-1.75,4.99-3.51,7.55-5.32l4.56,6.47Z"/><path class="cls-6" d="M185.91,171.52l5.45-3.84c1.32,1.88,2.57,3.65,3.82,5.43-1.8,1.27-3.6,2.54-5.45,3.84-1.33-1.88-2.57-3.66-3.82-5.43Z"/><path class="cls-5" d="M141.58,203.21l3.62,5.15c1.75-1.23,3.43-2.42,5.11-3.6,.29,.41,.57,.81,.9,1.28l-6.33,4.46-4.53-6.43,1.22-.86Z"/><path class="cls-5" d="M185.91,171.52c1.25,1.77,2.49,3.54,3.82,5.43,1.85-1.3,3.65-2.57,5.45-3.84,.24,.35,.49,.69,.82,1.17l-3.28,2.31-3.31,2.33c-1.56-2.21-3.07-4.35-4.64-6.59l1.14-.8Z"/><path class="cls-5" d="M230.97,137.14c-.9-1.42-.42-3.35,1.08-4.27,1.38-.84,3.16-.39,4.07,1.05,.88,1.38,.41,3.3-1.03,4.18-1.37,.84-3.26,.4-4.12-.95Z"/><path class="cls-5" d="M101.56,228.68c1.03,1.42,.72,3.43-.7,4.47-1.41,1.03-3.6,.62-4.66-.88-1.05-1.49-.74-3.38,.72-4.44,1.48-1.07,3.51-.7,4.64,.85Z"/><path class="cls-3" d="M117.64,153.63c3.01,4.25,2.02,10.08-2.23,13.06-4.23,2.97-10.14,1.94-13.08-2.28-2.93-4.21-1.93-9.99,2.25-12.99,4.22-3.03,10.04-2.04,13.06,2.21Zm-.95,3.03c.42-.14,.78-.24,.47-.86-.72-1.46-1.79-2.55-3.31-3.42-.04,.38-.06,.62-.09,.87-.09,.21-.22,.41-.28,.62-.37,1.28-.69,1.42-2.05,1.09-1.24-.3-.43-1.06-.41-1.64,.02-.34,.13-.68,.19-1.01,.19-.47,.2-.87-.47-.79-1.27,.14-2.54,.31-4.05,.5l.6,.86c.14,.23,.25,.49,.42,.69,.67,.8,.53,1.38-.31,2-.9,.66-1.3,.13-1.74-.52-.15-.22-.31-.44-.47-.66-.15-.16-.3-.33-.5-.54-1.61,1.77-2.29,3.74-2.08,6.13,.33-.07,.55-.12,.77-.17,.12-.02,.23-.03,.34-.06,1.42-.32,1.55-.21,1.93,1.09,.35,1.21-.64,1.06-1.24,1.32-.11,.05-.22,.07-.33,.1-.23,.09-.46,.19-.7,.28,.82,1.79,2.14,3.01,3.98,3.67,0-.29-.01-.54-.02-.79,.25-.55,.49-1.1,.74-1.64q2.23,.19,2,2.22c-.08,.27-.16,.53-.31,1.06,1.26-.29,2.27-.53,3.29-.75,.67-.14,.68-.49,.35-.98-.15-.22-.29-.46-.47-.66-.51-.58-.45-1.12,.14-1.58,.6-.47,1.2-.74,1.77,.08,.1,.15,.38,.17,.58,.25,.09,.29,.18,.58,.33,1.07,1.54-1.7,2.12-3.45,2.15-5.59-.38,.18-.61,.3-.85,.41-.23,0-.48-.05-.68,.03-.97,.37-1.29-.2-1.52-.98-.25-.85,.08-1.3,.91-1.46,.3-.06,.59-.15,.89-.23Z"/><path class="cls-3" d="M112.84,131.1l4.12,5.85-10.47,7.38-4.05-5.75c1.66-1.17,3.32-2.32,4.96-3.5,1.83-1.31,3.65-2.65,5.47-3.98,0,0-.03,0-.03,0Z"/><path class="cls-3" d="M122.47,145.83l-2.02-2.87,2.78-1.96,2.02,2.87-2.78,1.96Z"/><path class="cls-3" d="M155.92,125.57c-2.5-3.54-1.68-8.41,1.84-10.91,3.54-2.52,8.52-1.67,11.01,1.87,2.47,3.52,1.63,8.43-1.87,10.92-3.58,2.54-8.45,1.71-10.98-1.88Zm3.78,1.17h.02c.07,.1,.14,.2,.22,.3,.05-.07,.11-.14,.16-.21,.18-.54,.37-1.09,.58-1.71,.67,.15,1.3,.29,1.91,.43-.4,2.18-.22,2.32,1.85,1.65,.31-.1,.61-.24,.96-.39-.34-.58-.63-1.08-.95-1.62l1.58-1.12c.4,.48,.76,.92,1.12,1.37,1.39-1.83,1.83-3.12,1.46-4.3-.51,.09-1.03,.17-1.63,.28-.17-.65-.32-1.24-.48-1.86,.51-.18,.95-.25,1.29-.49,.22-.15,.48-.69,.4-.79-.77-.91-1.61-1.76-2.6-2.81-.27,.96-.44,1.54-.63,2.21-.69-.17-1.32-.33-1.97-.5,.15-.73,.29-1.37,.49-2.37-1.29,.19-2.41,.36-3.71,.55,.44,.78,.76,1.33,1.06,1.86l-1.58,1.11c-.4-.49-.75-.9-1.08-1.3-1.54,.9-2.29,2.96-1.71,4.72,.55-.11,1.11-.22,1.7-.33,.08,.3,.12,.53,.21,.74,.44,.97,.08,1.45-.92,1.58-.15,.02-.3,.1-.44,.15-.28,.87,1.03,2.4,2.22,2.6,0,0,.01,0,.01,0,.15,.08,.3,.16,.45,.24Z"/><path class="cls-1" d="M105.22,154.37c.16,.22,.32,.44,.47,.66,.44,.65,.83,1.18,1.74,.52,.84-.62,.99-1.2,.31-2-.17-.2-.28-.46-.42-.69,1.31-.19,2.61-.37,3.92-.56-.07,.34-.18,.67-.19,1.01-.03,.57-.83,1.33,.41,1.64,1.36,.33,1.68,.19,2.05-1.09,.06-.22,.18-.42,.28-.62,.97,1.14,1.95,2.28,2.92,3.42-.3,.08-.59,.17-.89,.23-.84,.16-1.16,.61-.91,1.46,.23,.78,.55,1.34,1.52,.98,.2-.08,.45-.02,.68-.03-.11,1.54-.37,3.03-1.63,4.11-.2-.08-.48-.1-.58-.25-.57-.82-1.17-.55-1.77-.08-.59,.46-.65,1-.14,1.58,.18,.2,.31,.44,.47,.66-1.11,.22-2.21,.44-3.32,.66q.23-2.03-2-2.22c-.25,.55-.5,1.1-.74,1.65-1.42-.71-2.6-1.67-3.26-3.16,.11-.03,.23-.06,.33-.1,.6-.26,1.59-.11,1.24-1.32-.38-1.3-.5-1.41-1.93-1.09-.11,.03-.23,.04-.34,.06-.27-2.1,.48-3.86,1.8-5.42Z"/><path class="cls-5" d="M105.22,154.37c-1.32,1.57-2.07,3.33-1.8,5.42-.22,.05-.44,.1-.77,.17-.22-2.39,.47-4.37,2.08-6.13,.2,.21,.35,.37,.5,.54Z"/><path class="cls-5" d="M115.46,163.41c1.26-1.08,1.52-2.57,1.63-4.11,.23-.11,.47-.23,.85-.41-.03,2.13-.61,3.89-2.15,5.59-.15-.49-.24-.78-.33-1.07Z"/><path class="cls-5" d="M104.11,162.25c.66,1.49,1.84,2.45,3.26,3.16,0,.25,.01,.5,.02,.79-1.83-.66-3.15-1.88-3.98-3.67,.23-.09,.47-.19,.7-.28Z"/><path class="cls-5" d="M116.7,156.65c-.97-1.14-1.95-2.28-2.92-3.42,.02-.25,.05-.49,.08-.87,1.52,.88,2.58,1.97,3.31,3.42,.31,.62-.05,.72-.47,.86Z"/><path class="cls-5" d="M111.23,152.3c-1.31,.19-2.61,.37-3.92,.56-.13-.18-.25-.36-.6-.86,1.51-.19,2.78-.36,4.05-.5,.68-.07,.67,.32,.47,.79Z"/><path class="cls-5" d="M110.11,165.98c1.11-.22,2.21-.44,3.32-.66,.34,.49,.32,.83-.34,.98-1.01,.22-2.02,.46-3.29,.75,.15-.53,.23-.79,.31-1.06Z"/><path class="cls-7" d="M157.02,123.89c.15-.05,.29-.13,.44-.15,1-.13,1.36-.61,.92-1.58-.09-.21-.13-.44-.21-.74-.59,.11-1.15,.22-1.7,.33-.57-1.76,.17-3.83,1.71-4.72,.34,.4,.68,.82,1.08,1.3l1.58-1.11c-.31-.53-.62-1.09-1.06-1.86,1.3-.19,2.42-.36,3.71-.55-.21,.99-.34,1.64-.49,2.37,.66,.17,1.28,.32,1.97,.5,.19-.67,.36-1.25,.63-2.21,.99,1.05,1.83,1.9,2.6,2.81,.08,.09-.18,.63-.4,.79-.34,.23-.78,.31-1.29,.49,.16,.63,.31,1.21,.48,1.86,.61-.1,1.13-.19,1.63-.28,.36,1.19-.07,2.47-1.46,4.3-.37-.45-.73-.88-1.12-1.37l-1.58,1.12c.32,.54,.61,1.04,.95,1.62-.35,.14-.65,.29-.96,.39-2.07,.67-2.24,.53-1.85-1.65-.62-.14-1.24-.28-1.91-.43-.21,.62-.39,1.17-.58,1.71-.13-.03-.25-.05-.38-.08h-.02c-.15-.09-.3-.17-.45-.25,0,0-.01,0-.01,0l-2.22-2.6Z"/><path class="cls-4" d="M157.02,123.89l2.22,2.6c-1.19-.2-2.5-1.73-2.22-2.6Z"/><path class="cls-4" d="M159.72,126.75c.13,.03,.25,.05,.38,.08-.05,.07-.11,.14-.16,.21-.07-.1-.14-.19-.22-.29Z"/><path class="cls-4" d="M159.26,126.5c.15,.08,.3,.16,.45,.24-.15-.08-.3-.16-.45-.24Z"/></g></g><g id="Layer_2"><path class="cls-3" d="M145.36,0C65.08,0,0,65.08,0,145.36s65.08,145.36,145.36,145.36,145.36-65.08,145.36-145.36S225.64,0,145.36,0Zm0,285.49c-77.39,0-140.13-62.74-140.13-140.13S67.97,5.23,145.36,5.23s140.13,62.74,140.13,140.13-62.74,140.13-140.13,140.13Z"/></g></svg>