<?xml version="1.0" encoding="UTF-8"?><svg id="Layer_1" xmlns="http://www.w3.org/2000/svg" viewBox="0 0 290.72 290.72"><defs><style>.cls-1{fill:#ffb022;}.cls-2{fill:#ff2223;}.cls-3{fill:#dd5df6;}.cls-4{fill:#ff5622;}.cls-5{fill:#fff5fa;}.cls-6{fill:#4e93e8;}.cls-7{fill:#770fe4;}.cls-8{fill:#ffd122;}.cls-9{fill:#f25df6;}.cls-10{fill:#ff84dc;}.cls-11{fill:#fffc60;}.cls-12{fill:#fe01b7;}.cls-13{fill:#b843ed;}.cls-14{fill:#ffffd8;}.cls-15{fill:#2c039d;}.cls-16{fill:#110f2c;}.cls-17{fill:#ffcef1;}.cls-18{fill:#01e3ab;}.cls-19{fill:#ff8722;}.cls-20{fill:#37fdeb;}</style></defs><rect class="cls-16" width="290.72" height="290.72" rx="7.83" ry="7.83"/><circle class="cls-12" cx="256.09" cy="228.51" r="4.34"/><rect class="cls-12" x="216.77" y="226.04" width="4.3" height="4.3"/><rect class="cls-12" x="224.94" y="226.04" width="4.3" height="4.3"/><rect class="cls-12" x="233.74" y="226.04" width="4.3" height="4.3"/><rect class="cls-12" x="49.7" y="226.38" width="8" height="4.26"/><path class="cls-18" d="M268.77,121.53H19.23c-1.6,0-2.89,1.3-2.89,2.89v113.02c0,1.6,1.3,2.89,2.89,2.89h62.99c3.74-4.7,12.11-14.03,21.1-16.09v-.08h81.36c9.11,1.9,17.65,11.41,21.44,16.17h62.65c1.6,0,2.89-1.3,2.89-2.89V124.43c0-1.6-1.3-2.89-2.89-2.89ZM33.96,237.45c-4.94,0-8.94-4-8.94-8.94s4-8.94,8.94-8.94,8.94,4,8.94,8.94-4,8.94-8.94,8.94Zm26.98-4.43h-14.04v-9.02h14.04v9.02Zm10.81-1.17h-8.55v-6.68h8.55v6.68Zm169.45,1.17h-28.09v-9.02h28.09v9.02Zm14.89,4.43c-4.94,0-8.94-4-8.94-8.94s4-8.94,8.94-8.94,8.94,4,8.94,8.94-4,8.94-8.94,8.94Zm8.94-21.53H23.23V127.83h241.79v88.09Z"/><g><path class="cls-8" d="M202.91,53.19c-2.97-5.22-6.59-10.02-10.76-14.3H91.74c-4.17,4.27-7.78,9.08-10.76,14.3h121.92Z"/><path class="cls-19" d="M208.79,74.64H73.08c-.81,4.27-1.25,8.67-1.25,13.18,0,.37,.02,.74,.03,1.12H201.17l7.63-14.3Z"/><path class="cls-2" d="M196.21,108.68c-.34,.25-.71,.46-1.12,.63l-11.23,4.62c-2.78,1.14-5.99-.2-7.14-2.98l-.56-1.36c-.12-.3-.21-.6-.28-.91H74.99c.71,2.3,1.55,4.54,2.49,6.72H206.42c.94-2.19,1.77-4.43,2.49-6.72h-12.7Z"/><path class="cls-4" d="M202.98,103.32l-3.91,1.79h10.84c1.03-4.07,1.69-8.28,1.98-12.6h-3.03l-5.88,10.81Z"/><path class="cls-11" d="M188.4,35.32c-12.37-10.95-28.63-17.62-46.45-17.62s-34.08,6.66-46.45,17.62h92.91Z"/><path class="cls-4" d="M176.32,105.11c.57-1.16,1.54-2.13,2.82-2.65l11.23-4.62c1.04-.43,2.13-.51,3.16-.3,.27,.05,.52,.13,.78,.23l2.8-1.21,2.16-4.04H72c.29,4.32,.95,8.53,1.98,12.6h102.34Z"/><path class="cls-19" d="M212.04,88.94c0-.37,.03-.74,.03-1.12s-.02-.77-.03-1.15l-1.24,2.27h1.24Z"/><path class="cls-1" d="M210.03,71.06c-1.23-5-2.99-9.78-5.22-14.3H79.08c-2.23,4.51-3.99,9.3-5.22,14.3H210.03Z"/></g><g><path class="cls-13" d="M81.71,42.21c2.39-3.16,5.04-6.11,7.89-8.85H16.34v8.85H81.71Z"/><path class="cls-7" d="M16.34,29.28H94.18c3.44-2.81,7.13-5.31,11.03-7.49H16.34v7.49Z"/><path class="cls-3" d="M72.56,57.87c1.75-4.06,3.85-7.92,6.26-11.57H16.34v11.57h56.22Z"/><polygon class="cls-9" points="271.66 61.96 225.47 61.96 217.14 77.28 271.66 77.28 271.66 61.96"/><path class="cls-9" d="M67.13,77.28c.74-5.3,2.02-10.43,3.8-15.32H16.34v15.32h50.79Z"/><path class="cls-15" d="M170.11,17.7h101.55v-3.06h-110.81c3.18,.82,6.27,1.86,9.27,3.06Z"/><path class="cls-13" d="M202.19,42.21h23.9l2.84-5.33c-.8-1.04-1.42-2.23-1.82-3.52h-32.81c2.85,2.74,5.49,5.69,7.89,8.85Z"/><path class="cls-7" d="M178.68,21.79c3.9,2.18,7.6,4.68,11.03,7.49h36.92c.2-2.96,1.54-5.6,3.59-7.49h-51.55Z"/><path class="cls-3" d="M205.07,46.3c2.41,3.65,4.51,7.52,6.26,11.57h6.41l6.17-11.57h-18.84Z"/><path class="cls-9" d="M215.56,61.96h-2.59c.36,.98,.69,1.97,1.01,2.97l1.59-2.97Z"/><polygon class="cls-3" points="233.98 46.3 227.69 57.87 271.66 57.87 271.66 46.3 233.98 46.3"/><path class="cls-12" d="M66.38,87.82c0-2.18,.11-4.33,.29-6.46H16.34v34.04h55.26c-3.36-8.55-5.22-17.85-5.22-27.59Zm-9.68,21.97H23.21c-1.11,0-2.02-.91-2.02-2.02s.91-2.02,2.02-2.02H56.7c1.11,0,2.02,.91,2.02,2.02s-.91,2.02-2.02,2.02Zm0-11.49H23.21c-1.11,0-2.02-.91-2.02-2.02s.91-2.02,2.02-2.02H56.7c1.11,0,2.02,.91,2.02,2.02s-.91,2.02-2.02,2.02Z"/><path class="cls-12" d="M217.22,81.36c.18,2.13,.29,4.28,.29,6.46,0,9.74-1.86,19.04-5.22,27.59h59.37v-34.04h-54.44Zm19.72,26.11c0,1.86-1.52,3.38-3.38,3.38s-3.38-1.52-3.38-3.38v-16.21c0-1.86,1.52-3.38,3.38-3.38s3.38,1.52,3.38,3.38v16.21Zm12.7,.64c0,1.86-1.52,3.38-3.38,3.38h0c-1.86,0-3.38-1.52-3.38-3.38v-19.15c0-1.86,1.52-3.38,3.38-3.38h0c1.86,0,3.38,1.52,3.38,3.38v19.15Zm12.7-.64c0,1.86-1.52,3.38-3.38,3.38s-3.38-1.52-3.38-3.38v-16.21c0-1.86,1.52-3.38,3.38-3.38s3.38,1.52,3.38,3.38v16.21Z"/><path class="cls-15" d="M113.78,17.7c3-1.21,6.09-2.25,9.27-3.06H16.34v3.06H113.78Z"/><path class="cls-7" d="M245.43,21.79c2.05,1.89,3.39,4.53,3.59,7.49h22.63v-7.49h-26.23Z"/><path class="cls-13" d="M248.56,33.36c-1.42,4.58-5.69,7.91-10.73,7.91-.37,0-.73-.02-1.09-.05l-.54,.99h35.46v-8.85h-23.1Z"/></g><polygon class="cls-14" points="236.17 36.55 201.45 101.28 194.94 104.6 193.53 101.15 198.38 98.34 234.26 33.36 236.17 36.55"/><circle class="cls-18" cx="237.83" cy="30.04" r="8.68"/><rect class="cls-18" x="177.32" y="101.79" width="19.28" height="8.55" rx="4.28" ry="4.28" transform="translate(-26.29 79.11) rotate(-22.36)"/><circle class="cls-12" cx="33.7" cy="228.51" r="4.34"/><circle class="cls-20" cx="258.96" cy="93.04" r="2.91"/><circle class="cls-20" cx="246.26" cy="103.72" r="2.91"/><circle class="cls-20" cx="233.55" cy="96.91" r="2.91"/><rect class="cls-20" x="22.98" y="95.47" width="12.06" height="1.79" rx=".89" ry=".89"/><rect class="cls-20" x="38.33" y="106.87" width="12.06" height="1.79" rx=".89" ry=".89"/><g><rect class="cls-6" x="283.91" y="27.91" width="6.81" height="38.64"/><polygon class="cls-6" points="290.72 242.96 290.43 89.74 283.91 89.73 283.91 242.96 290.72 242.96"/><path class="cls-6" d="M6.81,9.36c0-1.41,1.14-2.55,2.55-2.55H281.36c1.41,0,2.55,1.14,2.55,2.55v12.43h6.81V2.55c0-1.41-1.14-2.55-2.55-2.55H2.55C1.14,0,0,1.14,0,2.55V21.79H6.8V9.36Z"/><rect class="cls-6" x="283.91" y="72.68" width="6.81" height="10.92"/><path class="cls-6" d="M283.91,249.02v32.34c0,1.41-1.14,2.55-2.55,2.55H9.36c-1.41,0-2.55-1.14-2.55-2.55v-32.34H0v39.15c0,1.41,1.14,2.55,2.55,2.55H288.17c1.41,0,2.55-1.14,2.55-2.55v-39.15h-6.81Z"/><rect class="cls-6" y="89.73" width="6.81" height="153.17"/><rect class="cls-6" y="72.68" width="6.81" height="10.92"/><rect class="cls-6" y="27.91" width="6.81" height="38.64"/></g><g><rect class="cls-12" x="1.36" y="27.91" width="3.74" height="38.64"/><rect class="cls-12" x="1.36" y="89.73" width="3.74" height="153.17"/><path class="cls-12" d="M5.11,21.79V7.66c0-1.41,1.14-2.55,2.55-2.55H283.06c1.41,0,2.55,1.14,2.55,2.55v14.13h3.74V3.91c0-1.41-1.14-2.55-2.55-2.55H3.91c-1.41,0-2.55,1.14-2.55,2.55V21.79h3.74Z"/><rect class="cls-12" x="1.36" y="72.68" width="3.74" height="10.92"/><rect class="cls-12" x="285.62" y="89.73" width="3.74" height="153.17"/><path class="cls-12" d="M285.62,249.02v34.04c0,1.41-1.14,2.55-2.55,2.55H7.66c-1.41,0-2.55-1.14-2.55-2.55v-34.04H1.36v37.79c0,1.41,1.14,2.55,2.55,2.55H286.81c1.41,0,2.55-1.14,2.55-2.55v-37.79h-3.74Z"/><rect class="cls-12" x="285.62" y="72.68" width="3.74" height="10.92"/><rect class="cls-12" x="285.62" y="27.91" width="3.74" height="38.64"/></g><g><polygon class="cls-9" points="131.75 261.87 127.25 261.87 127.25 232.6 122.17 232.6 122.17 262.26 117.45 262.26 117.45 278.47 131.75 278.47 131.75 261.87"/><polygon class="cls-12" points="151.41 262.26 146.94 262.26 146.94 246.23 142.83 246.27 142.83 261.87 137.11 261.87 137.11 278.47 151.41 278.47 151.41 262.26"/><polygon class="cls-10" points="112.09 262.26 106.6 262.26 106.64 240.6 97.02 240.6 97.02 278.47 112.09 278.47 112.09 262.26"/><polygon class="cls-12" points="52.34 278.47 52.34 262.26 46.13 262.26 46.13 247.57 42.02 247.57 42.02 261.87 38.04 261.87 38.04 278.47 52.34 278.47"/><polygon class="cls-17" points="91.66 249.02 81.38 249.02 81.38 261.87 77.36 261.87 77.36 278.47 91.66 278.47 91.66 249.02"/><polygon class="cls-5" points="72 261.87 65.81 261.87 65.81 243.62 61.7 243.62 61.7 262.26 57.7 262.26 57.7 278.47 72 278.47 72 261.87"/><polygon class="cls-17" points="211.4 261.87 205.49 261.87 205.49 255.43 197.11 255.39 197.11 278.47 211.4 278.47 211.4 261.87"/><polygon class="cls-9" points="32.68 261.87 26.45 261.87 26.45 252.81 16.34 252.81 16.34 278.47 32.68 278.47 32.68 261.87"/><polygon class="cls-9" points="260.43 242.98 260.43 261.87 256.09 261.87 256.09 278.47 271.66 278.47 271.66 242.98 260.43 242.98"/><polygon class="cls-12" points="250.72 261.87 244.85 261.87 244.85 243.81 240.74 243.83 240.74 262.26 236.43 262.26 236.43 278.47 250.72 278.47 250.72 261.87"/><polygon class="cls-10" points="191.74 230.31 182.19 230.31 182.19 261.87 176.43 261.87 176.43 278.47 191.74 278.47 191.74 230.31"/><polygon class="cls-9" points="171.07 261.87 166.62 261.87 166.62 237.74 162.51 237.74 162.51 262.26 156.77 262.26 156.77 278.47 171.07 278.47 171.07 261.87"/><polygon class="cls-5" points="231.06 262.26 225.17 262.26 225.17 250.41 221.06 250.41 221.06 261.87 216.77 261.87 216.77 278.47 231.06 278.47 231.06 262.26"/></g><path class="cls-14" d="M87.23,134.64c-5.69,0-10.91,1.95-15.06,5.21-4.15-3.26-9.38-5.21-15.06-5.21-13.49,0-24.43,10.94-24.43,24.43,0,1.25,.28,48.18,.28,48.18,0,1.13,1.26,2.04,2.8,2.04h14.81c1.55,0,2.8-.91,2.8-2.04v-49.13c0-2.21,1.81-4.02,4.02-4.02h.38c2.21,0,4.02,1.81,4.02,4.02v49.25c0,1.06,1.29,1.92,2.88,1.92h15.23c1.59,0,2.88-.86,2.88-1.92v-49.25c0-2.21,1.81-4.02,4.02-4.02h.38c2.21,0,4.02,1.81,4.02,4.02v49.54c0,1.08,1.26,1.96,2.8,1.96h14.81c1.55,0,2.8-.88,2.8-1.96v-47.33c.02-.42,.03-.84,.03-1.26,0-13.49-10.94-24.43-24.43-24.43Z"/><path class="cls-18" d="M32.95,206.8c0,.28,0,.44,0,.44,0,1.13,1.26,2.04,2.8,2.04h14.81c1.55,0,2.8-.91,2.8-2.04v-7.57s-19.42,6.83-20.42,7.13Z"/><path class="cls-18" d="M61.79,196.71v10.65c0,1.06,1.29,1.92,2.88,1.92h15.23c1.59,0,2.88-.86,2.88-1.92v-18.03l-21,7.38Z"/><path class="cls-18" d="M91.21,186.43v21.22c0,1.08,1.26,1.96,2.8,1.96h14.81c1.55,0,2.8-.88,2.8-1.96v-28.46s-16.67,5.97-20.41,7.24Z"/><path class="cls-14" d="M139.14,210.38h-14.81c-1.55,0-2.8-1.23-2.8-2.75v-60.46c2.43-7.18,7.11-12.19,17.61-11.57,1.55,0,2.8,1.23,2.8,2.75v69.28c0,1.52-1.25,2.75-2.8,2.75Z"/><path class="cls-18" d="M121.53,175.71v31.93c0,1.52,1.26,2.75,2.8,2.75h14.81c1.55,0,2.8-1.23,2.8-2.75v-39.1l-20.41,7.18Z"/><path class="cls-14" d="M233.44,210.38h14.81c1.55,0,2.8-1.23,2.8-2.75v-60.46c-2.43-7.18-7.11-12.19-17.61-11.57-1.55,0-2.8,1.23-2.8,2.75v69.28c0,1.52,1.25,2.75,2.8,2.75Z"/><path class="cls-18" d="M230.64,201.45v6.19c0,1.52,1.26,2.75,2.8,2.75h14.81c1.02,0,1.92-.54,2.41-1.34,.1-.16-20.02-7.6-20.02-7.6Z"/><path class="cls-14" d="M188.86,135.74c-.13-.02-.27-.04-.41-.05-.05,0-.1-.01-.15-.02-.06,0-.11-.01-.17-.02-.08,0-.17,0-.25-.01-1.07-.1-2.15-.15-3.25-.15-.22,0-.44,.01-.67,.02-6.8-.14-17.23,0-22.43,.09-.87-.03-1.76-.04-2.72,.02-.14,0-.28,.02-.41,.04-.02,0-.05,0-.05,0h0c-1.33,.22-2.34,1.34-2.34,2.7v69.28c0,1.52,1.26,2.75,2.8,2.75h14.81c.24,0,.47-.04,.7-.1,3.64-.15,10.04-.5,15.18-1.26,.96-.13,1.92-.3,2.85-.5,.73-.15,1.4-.32,2.01-.49,.08-.02,.13-.05,.2-.07,15.29-4.38,26.5-18.63,26.5-35.54,0-18.95-14.08-34.56-32.2-36.68Zm1.81,54.03s-.05,.02-.08,.03c-.25,.09-.53,.16-.83,.24-.39,.1-.79,.18-1.19,.24-2.14,.37-4.8,.54-6.32,.61-.09,.03-.19,.05-.29,.05h-6.16c-.64,0-1.17-.59-1.17-1.32v-33.32c0-.66,.42-1.2,.98-1.3h0s.01,0,.02,0c.06,0,.11-.02,.17-.02,.4-.03,.77-.02,1.13,0,2.16-.04,6.5-.11,9.33-.04,.09,0,.18,0,.28,0,.46,0,.91,.03,1.35,.07,.03,0,.07,0,.1,0,.02,0,.05,0,.07,0,.02,0,.04,0,.06,0,.06,0,.12,.01,.17,.03,7.54,1.02,13.4,8.53,13.4,17.64,0,8.13-4.66,14.98-11.02,17.09Z"/><path class="cls-18" d="M194.56,187.75c-1.19,.87-2.5,1.56-3.89,2.02-.03,.01-.05,.02-.08,.03-.25,.09-.53,.16-.83,.24-.39,.1-.79,.18-1.19,.24-2.14,.37-4.8,.54-6.32,.61-.09,.03-.19,.05-.29,.05h-6.16c-.64,0-1.17-.59-1.17-1.32v-9.43l-18.62-7.22v34.66c0,1.52,1.26,2.75,2.8,2.75h14.81c.24,0,.47-.04,.7-.1,3.64-.15,10.04-.5,15.18-1.26,.96-.13,1.92-.3,2.85-.5,.73-.15,1.4-.32,2.01-.49,.08-.02,.13-.05,.2-.07,7.62-2.19,14.23-6.82,18.94-13.02-14.08-5.25-18.52-7.14-18.94-7.19Z"/></svg>