<?xml version="1.0" encoding="UTF-8"?><svg xmlns="http://www.w3.org/2000/svg" viewBox="0 0 290.11 290.11"><defs><style>.cls-1{fill:#ffb022;}.cls-2{fill:#ff2223;}.cls-3{fill:#dd5df6;}.cls-4{fill:#ff5622;}.cls-5{fill:#fff5fa;}.cls-6{fill:#770fe4;}.cls-7{fill:#ffd122;}.cls-8{fill:#f25df6;}.cls-9{fill:#ff84dc;}.cls-10{fill:#fffc60;}.cls-11{fill:#fe01b7;}.cls-12{stroke:#4e93e8;stroke-width:3px;}.cls-12,.cls-13{fill:none;stroke-miterlimit:10;}.cls-14{fill:#b843ed;}.cls-15{fill:#1b0568;}.cls-16{fill:#ffffd8;}.cls-17{fill:#2c039d;}.cls-18{fill:#110f2c;}.cls-13{stroke:#fe01b7;stroke-width:5px;}.cls-19{fill:#ffcef1;}.cls-20{fill:#01e3ab;}.cls-21{fill:#ff8722;}.cls-22{fill:#37fdeb;}</style></defs><g id="Layer_1"><path class="cls-18" d="M284.14,121.12c-3.77-11.5-5.12-24.47-10.96-35.13-2.79-5.09-6.28-9.75-8.98-14.89-2.63-4.99-4.79-10.22-7.57-15.13-5.69-10.06-14.54-17.55-24.82-22.63-5.25-2.6-9.94-5.28-14.65-8.79-.74-.55-1.47-1.09-2.21-1.64-4.55-2.01-8.83-4.5-12.5-7.95-1.01-.95-1.34-2-1.25-3-6.6-2.2-13.01-4.88-19.8-6.53-1.02-.25-1.73-.77-2.19-1.42h-63.99c-8.33,8.44-21.87,7.22-31.8,12.97-13.9,8.04-25.97,17.44-36.85,29.28-10.29,11.19-18.95,23.74-25.4,37.52-5.19,11.08-11.69,21.59-17.06,32.6v57.58c1.01,.6,1.7,1.7,1.59,3.28-.05,.67-.15,1.42-.27,2.2,1.54,.01,3.03,.89,3.54,2.86,.66,2.55,.88,5.16,.77,7.76,1.03,4.24,3.09,8.25,5.07,12.19,2.54,5.05,4.89,10.19,7.74,15.07,6.31,10.79,15.2,19.45,24.8,27.33,10.08,8.28,21.16,15.3,32.7,21.37,5.83,3.07,11.76,5.9,17.48,9.18,6.08,3.49,12.13,7.12,18.61,9.84,.63,.26,1.14,.63,1.55,1.05h56.36c18.2-7.23,36.37-14.55,54.14-22.82,1.71-1.58,3.39-3.21,5.06-4.84,4.87-4.75,9.89-9.34,14.74-14.11,5.06-4.98,10.1-10.2,13.76-16.33,3.69-6.18,6.2-13.03,8.77-19.73,2.59-6.77,4.79-13.69,7.46-20.42,2.1-5.3,5.28-9.8,8.05-14.69v-49.76c-.81-.44-1.5-1.17-1.86-2.27Z"/><circle class="cls-11" cx="249.95" cy="218.82" r="4.11"/><rect class="cls-11" x="212.7" y="216.48" width="4.07" height="4.07"/><rect class="cls-11" x="220.44" y="216.48" width="4.07" height="4.07"/><rect class="cls-11" x="228.78" y="216.48" width="4.07" height="4.07"/><rect class="cls-11" x="54.44" y="216.81" width="7.58" height="4.04"/><path class="cls-20" d="M264.7,222.77V120.23c0-1.52-1.23-2.74-2.74-2.74h0s-236.39,0-236.39,0c-1.52,0-2.74,1.23-2.74,2.74v99.61c.63,0,1.3,.18,1.99,.6,3.74,2.33,8.27,4.8,10.29,8.92,.1,.21,.19,.44,.26,.67h49.87c3.54-4.45,11.47-13.29,19.99-15.24v-.08h77.07c8.63,1.8,16.72,10.81,20.31,15.32h54.85c1.4-3.26,3.6-5.96,7.23-7.25Zm-225.17,4.52c-4.68,0-8.47-3.79-8.47-8.47s3.79-8.47,8.47-8.47,8.47,3.79,8.47,8.47-3.79,8.47-8.47,8.47Zm25.56-4.2h-13.3v-8.54h13.3v8.54Zm10.24-1.11h-8.1v-6.33h8.1v6.33Zm-45.96-15.09V123.45h229.05v83.45H29.36Zm206.48,16.2h-26.61v-8.54h26.61v8.54Zm5.64-4.27c0-4.68,3.79-8.47,8.47-8.47s8.47,3.79,8.47,8.47-3.79,8.47-8.47,8.47-8.47-3.79-8.47-8.47Z"/><g><path class="cls-7" d="M199.57,52.74c-2.81-4.94-6.24-9.49-10.19-13.55H94.26c-3.95,4.04-7.37,8.6-10.19,13.55h115.5Z"/><path class="cls-21" d="M205.14,73.06H76.58c-.77,4.04-1.18,8.21-1.18,12.49,0,.35,.02,.7,.03,1.06h122.5l7.23-13.55h0Z"/><path class="cls-2" d="M193.23,105.31c-.32,.24-.67,.44-1.06,.6l-10.64,4.38c-2.63,1.08-5.67-.19-6.76-2.82l-.53-1.29c-.11-.28-.2-.57-.27-.86H78.39c.67,2.18,1.47,4.3,2.36,6.37h122.15c.89-2.07,1.68-4.2,2.36-6.37,0,0-12.03,0-12.03,0Z"/><path class="cls-4" d="M199.64,100.23l-3.7,1.7h10.27c.98-3.86,1.6-7.84,1.88-11.94h-2.87l-5.57,10.24h0Z"/><path class="cls-10" d="M185.83,35.81c-11.72-10.37-27.12-16.69-44-16.69s-32.28,6.31-44,16.69h88Z"/><path class="cls-4" d="M174.38,101.93c.54-1.1,1.46-2.02,2.67-2.51l10.64-4.38c.99-.41,2.02-.48,2.99-.28,.26,.05,.49,.12,.74,.22l2.65-1.15,2.05-3.83H75.56c.27,4.09,.9,8.08,1.88,11.94h96.95Z"/><path class="cls-21" d="M208.22,86.61c0-.35,.03-.7,.03-1.06s-.02-.73-.03-1.09l-1.17,2.15s1.17,0,1.17,0Z"/><path class="cls-1" d="M206.32,69.67c-1.17-4.74-2.83-9.26-4.94-13.55H82.27c-2.11,4.27-3.78,8.81-4.94,13.55H206.32Z"/></g><g><path class="cls-14" d="M50.96,38.14c-1.13,1.38-2.22,2.79-3.31,4.2h37.11c2.26-2.99,4.77-5.79,7.47-8.38H54.7c-1.29,1.31-2.54,2.7-3.74,4.18Z"/><path class="cls-6" d="M72.38,23c-1.08,.37-2.15,.76-3.21,1.19-3.83,1.52-7.16,3.51-10.19,5.91h37.59c3.26-2.66,6.75-5.03,10.45-7.1h-34.64Z"/><path class="cls-3" d="M36.96,55.13c-.67,.66-1.29,1.34-1.89,2.05h41.02c1.66-3.85,3.65-7.5,5.93-10.96H44.66c-2.41,3.1-4.89,6.14-7.71,8.91Z"/><path class="cls-8" d="M264.57,65.99c-.75-.83-1.55-1.63-2.42-2.4-.96-.84-1.92-1.66-2.81-2.55h-38.4l-7.89,14.51h51.65v-9.38c-.04-.06-.08-.12-.12-.18Z"/><path class="cls-8" d="M24.1,72.5c-.39,.42-.82,.72-1.26,.92v2.15h48.11c.7-5.02,1.91-9.88,3.6-14.51H32.19c-2.61,3.86-4.85,7.96-8.09,11.45Z"/><path class="cls-17" d="M210.36,16.22h-50.64c3.01,.78,5.94,1.76,8.78,2.9h45.18c-1.18-.88-2.3-1.84-3.32-2.9Z"/><path class="cls-14" d="M234.58,42.34h8.74c-1.53-1.5-2.95-3.1-4.17-4.82-1.26-1.1-2.45-2.26-3.51-3.56h-8.69c4.48,.92,7.02,4.47,7.63,8.38Z"/><path class="cls-14" d="M222.23,33.96h-30.81c2.7,2.6,5.2,5.39,7.47,8.38h15.71c.62-3.91,3.16-7.46,7.63-8.38Z"/><path class="cls-6" d="M220.8,23h-44.18c3.69,2.07,7.2,4.43,10.45,7.1h34.97c.13-1.86,.73-3.58,1.69-5.05-1.01-.63-1.98-1.32-2.93-2.04Z"/><path class="cls-3" d="M214.61,46.22h-12.99c2.28,3.46,4.27,7.12,5.93,10.96h6.07l3.18-5.96c-1.15-1.43-1.89-3.17-2.19-5Z"/><path class="cls-8" d="M211.56,61.05h-2.45c.34,.93,.65,1.87,.96,2.81l1.51-2.81h0Z"/><path class="cls-3" d="M255,53.08c-1.86-1.65-3.75-3.27-5.55-4.96-.65-.61-1.27-1.25-1.88-1.9h-13c-.75,4.51-4.08,8.51-9.98,8.51-.07,0-.13,0-.2,0l-1.34,2.46h33.36c-.7-1.33-1.16-2.7-1.41-4.1Z"/><path class="cls-11" d="M70.24,85.55c0-2.07,.1-4.1,.27-6.12H22.83v32.25h52.35c-3.18-8.1-4.94-16.91-4.94-26.14h0Zm-9.17,20.82H29.34c-1.05,0-1.91-.86-1.91-1.91s.86-1.91,1.91-1.91h31.73c1.05,0,1.91,.86,1.91,1.91s-.86,1.91-1.91,1.91Zm0-10.88H29.34c-1.05,0-1.91-.86-1.91-1.91s.86-1.91,1.91-1.91h31.73c1.05,0,1.91,.86,1.91,1.91s-.86,1.91-1.91,1.91Z"/><path class="cls-11" d="M213.13,79.43c.17,2.02,.27,4.05,.27,6.12,0,9.23-1.76,18.04-4.94,26.14h56.24v-32.25h-51.57Zm18.68,24.72c0,1.76-1.44,3.2-3.2,3.2s-3.2-1.44-3.2-3.2v-15.36c0-1.76,1.44-3.2,3.2-3.2s3.2,1.44,3.2,3.2v15.36Zm12.03,.61c0,1.76-1.44,3.2-3.2,3.2h0c-1.76,0-3.2-1.44-3.2-3.2v-18.14c0-1.76,1.44-3.2,3.2-3.2h0c1.76,0,3.2,1.44,3.2,3.2v18.14Zm12.03-.61c0,1.76-1.44,3.2-3.2,3.2s-3.2-1.44-3.2-3.2v-15.36c0-1.76,1.44-3.2,3.2-3.2s3.2,1.44,3.2,3.2v15.36Z"/><path class="cls-17" d="M93.15,16.22c-.32,.24-.68,.46-1.11,.62-2.29,.84-4.63,1.58-6.97,2.28h30.07c2.84-1.15,5.77-2.13,8.78-2.9h-30.78Z"/><path class="cls-14" d="M234.58,42.34h8.74c-1.22-1.2-2.37-2.45-3.41-3.78-1.5,1.41-3.41,2.39-5.54,2.74,.09,.34,.15,.69,.21,1.04Z"/><path class="cls-15" d="M177.95,8.28h-57.22c-.83,.25-1.75,.47-2.87,.63-3.09,.44-6.22,.86-9.36,1.25-.32,.37-.67,.71-1.03,1.04h70.03c2.18-.34,4.38-.67,6.59-.98-2.13-.31-4.18-.82-6.15-1.94Z"/></g><path class="cls-16" d="M226.77,38.49l-31.48,57.02-4.59,2.66,1.34,3.27,6.17-3.15,31.39-58.52c-.93-.44-1.88-.85-2.81-1.28Z"/><circle class="cls-20" cx="224.43" cy="44.52" r="8.22"/><path class="cls-20" d="M178.23,101.03l9.39-3.86c2.07-.85,4.44,.13,5.29,2.2h0c.85,2.07-.14,4.44-2.21,5.29l-9.39,3.86c-2.07,.85-4.44-.13-5.29-2.2h0c-.85-2.07,.14-4.44,2.21-5.29Z"/><circle class="cls-11" cx="39.28" cy="218.82" r="4.11"/><circle class="cls-22" cx="252.67" cy="90.49" r="2.76"/><circle class="cls-22" cx="240.64" cy="100.61" r="2.76"/><circle class="cls-22" cx="228.6" cy="94.16" r="2.76"/><rect class="cls-22" x="29.12" y="92.79" width="11.42" height="1.7" rx=".84" ry=".84"/><rect class="cls-22" x="43.67" y="103.59" width="11.42" height="1.7" rx=".84" ry=".84"/><g><polygon class="cls-8" points="127.9 225.16 123.09 225.16 123.09 255.97 118.62 255.97 118.62 282.1 132.16 282.1 132.16 255.34 127.9 255.34 127.9 225.16"/><polygon class="cls-11" points="150.79 255.97 146.55 255.97 146.55 230.14 142.66 230.2 142.66 255.34 137.24 255.34 137.24 282.1 150.79 282.1 150.79 255.97"/><path class="cls-9" d="M108.34,255.97l.04-33.88h-9.11v58.47c.66,.48,1.31,.99,1.94,1.53h12.33v-26.12h-5.2Z"/><rect class="cls-11" x="47.16" y="235.88" width="3.89" height="11.49"/><path class="cls-19" d="M81.77,272.62c4.28,1.22,8.46,2.67,12.41,4.77v-42.76h-9.74v20.71h-3.81v16.24c.39,.34,.77,.68,1.13,1.04Z"/><path class="cls-5" d="M75.56,267.85v-12.5h-5.86v-22.86h-3.89v23.49h-3.79v6.52c4.73,.94,9.45,2.84,13.55,5.36Z"/><path class="cls-19" d="M195.49,278.26c4-2.27,8.04-4.46,12.13-6.56v-16.36h-5.6v-10.38l-7.94-.06v33.55c.47-.06,.94-.12,1.41-.18Z"/><path class="cls-11" d="M235.66,254.66c.09-.06,.18-.13,.27-.19,.38-.24,.8-.39,1.23-.46,.69-.28,1.41-.53,2.14-.76v-20.09h-3.89v21.63c.09-.04,.16-.09,.25-.13Z"/><path class="cls-9" d="M188.99,279.02v-55.23h-9.05v31.54h-5.46v26.75h1.18c4.17-1.89,8.73-2.55,13.32-3.07Z"/><polygon class="cls-8" points="165.19 220.56 161.3 220.56 161.3 255.97 155.86 255.97 155.86 282.1 169.41 282.1 169.41 255.34 165.19 255.34 165.19 220.56"/><path class="cls-5" d="M220.72,265.4c1.88-1.54,3.69-3.09,5.52-4.57v-4.86h-5.58v-19.1h-3.89v18.47h-4.06v13.83c2.65-1.3,5.32-2.56,8.02-3.77Z"/></g><path class="cls-16" d="M89.99,129.9c-5.39,0-10.34,1.85-14.27,4.94-3.93-3.09-8.89-4.94-14.27-4.94-12.78,0-23.14,10.36-23.14,23.14,0,1.18,.27,45.64,.27,45.64,0,1.07,1.19,1.93,2.65,1.93h14.03c1.47,0,2.65-.86,2.65-1.93v-46.54c0-2.09,1.71-3.81,3.81-3.81h.36c2.09,0,3.81,1.71,3.81,3.81v46.65c0,1,1.22,1.82,2.73,1.82h14.43c1.51,0,2.73-.81,2.73-1.82v-46.65c0-2.09,1.71-3.81,3.81-3.81h.36c2.09,0,3.81,1.71,3.81,3.81v46.93c0,1.02,1.19,1.86,2.65,1.86h14.03c1.47,0,2.65-.83,2.65-1.86v-44.84c.02-.4,.03-.8,.03-1.19,0-12.78-10.36-23.14-23.14-23.14h.02Z"/><path class="cls-20" d="M38.57,198.26v.42c0,1.07,1.19,1.93,2.65,1.93h14.03c1.47,0,2.65-.86,2.65-1.93v-7.17s-18.4,6.47-19.34,6.75h0Z"/><path class="cls-20" d="M65.89,188.7v10.09c0,1,1.22,1.82,2.73,1.82h14.43c1.51,0,2.73-.81,2.73-1.82v-17.08l-19.89,6.99h0Z"/><path class="cls-20" d="M93.76,178.96v20.1c0,1.02,1.19,1.86,2.65,1.86h14.03c1.47,0,2.65-.83,2.65-1.86v-26.96s-15.79,5.66-19.33,6.86h0Z"/><path class="cls-16" d="M139.16,201.65h-14.03c-1.47,0-2.65-1.17-2.65-2.61v-57.27c2.3-6.8,6.74-11.55,16.68-10.96,1.47,0,2.65,1.17,2.65,2.61v65.63c0,1.44-1.18,2.61-2.65,2.61Z"/><path class="cls-20" d="M122.48,168.81v30.25c0,1.44,1.19,2.61,2.65,2.61h14.03c1.47,0,2.65-1.17,2.65-2.61v-37.04l-19.33,6.8h0Z"/><path class="cls-16" d="M228.49,201.65h14.03c1.47,0,2.65-1.17,2.65-2.61v-57.27c-2.3-6.8-6.74-11.55-16.68-10.96-1.47,0-2.65,1.17-2.65,2.61v65.63c0,1.44,1.18,2.61,2.65,2.61Z"/><path class="cls-20" d="M225.84,193.19v5.86c0,1.44,1.19,2.61,2.65,2.61h14.03c.97,0,1.82-.51,2.28-1.27,.09-.15-18.97-7.2-18.97-7.2Z"/><path class="cls-16" d="M186.26,130.94c-.12-.02-.26-.04-.39-.05-.05,0-.09,0-.14-.02-.06,0-.1,0-.16-.02-.08,0-.16,0-.24,0-1.01-.09-2.04-.14-3.08-.14-.21,0-.42,0-.63,.02-6.44-.13-16.32,0-21.25,.09-.82-.03-1.67-.04-2.58,.02-.13,0-.27,.02-.39,.04h-.05c-1.26,.21-2.22,1.27-2.22,2.56v65.63c0,1.44,1.19,2.61,2.65,2.61h14.03c.23,0,.45-.04,.66-.09,3.45-.14,9.51-.47,14.38-1.19,.91-.12,1.82-.28,2.7-.47,.69-.14,1.33-.3,1.9-.46,.08-.02,.12-.05,.19-.07,14.48-4.15,25.1-17.65,25.1-33.67,0-17.95-13.34-32.74-30.5-34.75h0Zm1.71,51.17s-.05,.02-.08,.03c-.24,.09-.5,.15-.79,.23-.37,.09-.75,.17-1.13,.23-2.03,.35-4.55,.51-5.99,.58-.09,.03-.18,.05-.27,.05h-5.84c-.61,0-1.11-.56-1.11-1.25v-31.56c0-.63,.4-1.14,.93-1.23h.02c.06,0,.1-.02,.16-.02,.38-.03,.73-.02,1.07,0,2.05-.04,6.16-.1,8.84-.04h.27c.44,0,.86,.03,1.28,.07h.22c.06,0,.11,0,.16,.03,7.14,.97,12.69,8.08,12.69,16.71,0,7.7-4.41,14.19-10.44,16.19h0Z"/><path class="cls-20" d="M191.66,180.21c-1.13,.82-2.37,1.48-3.69,1.91-.03,0-.05,.02-.08,.03-.24,.09-.5,.15-.79,.23-.37,.09-.75,.17-1.13,.23-2.03,.35-4.55,.51-5.99,.58-.09,.03-.18,.05-.27,.05h-5.84c-.61,0-1.11-.56-1.11-1.25v-8.93l-17.64-6.84v32.83c0,1.44,1.19,2.61,2.65,2.61h14.03c.23,0,.45-.04,.66-.09,3.45-.14,9.51-.47,14.38-1.19,.91-.12,1.82-.28,2.7-.47,.69-.14,1.33-.3,1.9-.46,.08-.02,.12-.05,.19-.07,7.22-2.07,13.48-6.46,17.94-12.33-13.34-4.97-17.54-6.76-17.94-6.81h0Z"/></g><g id="Layer_2"><circle class="cls-12" cx="145.06" cy="145.06" r="138.52"/><circle class="cls-12" cx="145.06" cy="145.06" r="138.52"/><circle class="cls-12" cx="145.06" cy="145.06" r="138.52"/><circle class="cls-12" cx="145.06" cy="145.06" r="143.56"/><circle class="cls-12" cx="145.06" cy="145.06" r="143.56"/><circle class="cls-12" cx="145.06" cy="145.06" r="143.56"/><circle class="cls-12" cx="145.06" cy="145.06" r="143.56"/><circle class="cls-12" cx="145.06" cy="145.06" r="143.56"/><circle class="cls-13" cx="145.06" cy="145.06" r="141.04"/></g></svg>